<svg width="6828" height="5945" viewBox="0 0 6828 5945" fill="none" xmlns="http://www.w3.org/2000/svg">
<path opacity="0.15" d="M120.732 2737.28C237.131 2775.17 384.212 2746.6 429.337 2736.25C429.337 2821.86 430.658 2911.99 436.794 3005.75C444.53 3142.73 461.18 3278.5 486.545 3411.42C486.545 3412.97 487.3 3414.65 487.583 3416.21C470.402 3379.09 419.707 3277.71 415.648 3270.08C351.737 3168.82 184.738 3024.37 84.0093 3083.21C11.4132 3125.5 -9.82755 3244.47 26.6121 3335.25C63.807 3427.97 152.924 3473.88 224.859 3488.37C306.329 3504.53 477.765 3436.64 491.359 3430.95C519.447 3565.7 554.076 3697.72 595.014 3826.15C618.615 3900.89 644.104 3975.25 670.537 4049.22C654.96 4017.92 640.8 3989.99 638.534 3986.37C574.529 3885.11 407.529 3740.67 306.801 3799.64C234.299 3841.79 213.059 3960.9 249.498 4051.68C286.693 4144.4 375.716 4190.31 447.745 4204.66C519.775 4219.01 668.083 4165.86 706.882 4150.22C717.078 4178.54 727.179 4206.99 737.469 4235.18C787.125 4370.58 837.064 4505.33 883.133 4639.69C899.371 4687.02 914.097 4734.35 929.013 4781.94C915.042 4754.01 903.147 4730.21 900.692 4727.5C836.781 4626.24 669.782 4481.79 569.053 4540.63C496.552 4582.92 475.217 4701.89 511.656 4792.67C549.418 4885.52 637.968 4931.3 709.903 4945.78C779.856 4959.75 915.891 4911.51 961.96 4894.06C976.121 4943.2 990.281 4992.34 1002.46 5040.83C1010.2 5074.2 1019.36 5105.49 1025.68 5139.76C1032.01 5174.03 1039.28 5206.62 1046.07 5239.47C1057.21 5303.48 1069.11 5369.56 1078.93 5432.41C1086.01 5475.99 1092.05 5517.76 1098.37 5559.92C1082.61 5512.46 1050.32 5420.64 1046.92 5413.4C995.001 5300.12 845.844 5122.95 739.829 5160.06C663.362 5186.7 629.188 5299.86 654.866 5397.23C681.393 5496.68 764.374 5560.43 834.232 5589.66C911.077 5621.86 1081.19 5592.51 1102.43 5588.63C1112.63 5658.2 1122.07 5726.09 1130.19 5790.36C1136.98 5843.13 1143.28 5893.77 1149.07 5942.31H1218.08C1211.09 5888.95 1203.38 5832.91 1194.95 5774.2C1184.75 5703.33 1172.86 5628.07 1160.21 5550.87C1211.41 5522.74 1261.38 5490.52 1309.84 5454.39C1365.82 5537.55 1509.31 5635.44 1527.91 5647.08C1508.37 5712.9 1488.92 5776.4 1469.85 5836.4C1458.24 5873.13 1446.82 5908.17 1435.58 5942.44H1507.99C1515.16 5919.03 1522.34 5895.37 1529.61 5870.93C1549.62 5804.2 1570.11 5732.43 1590.59 5658.46C1611.17 5664.28 1779.4 5711.22 1858.13 5686.91C1929.31 5664.92 2015.5 5609.32 2046.94 5513.23C2078.09 5418.83 2050.15 5302.44 1975.47 5267.53C1871.63 5219.81 1713.32 5381.2 1655.35 5488.92C1651.95 5495.26 1620.42 5569.87 1601.07 5617.46C1609.38 5587.2 1617.59 5557.85 1625.8 5526.94C1642.32 5465.13 1657.52 5402.8 1674.04 5335.68C1681.22 5302.92 1688.46 5269.86 1695.76 5236.49C1703.5 5203.65 1708.6 5167.44 1715.2 5133.04C1729.36 5051.95 1740.79 4968.8 1750.89 4884.62C1790.44 4904.27 1931.67 4971.65 2004.83 4964.54C2078 4957.42 2168.91 4920.96 2211.1 4832.24C2252.36 4745.47 2237.63 4624.56 2167.58 4575.03C2070.25 4506.36 1895.89 4632.96 1826.69 4727.5C1822.35 4733.31 1778.17 4808.71 1754.57 4850.74C1760.33 4800.17 1766.37 4749.61 1771 4698.14C1784.5 4549.55 1794.69 4398.51 1805.45 4247.85C1808.66 4201.82 1812.34 4155.91 1815.93 4109.87C1829.9 4117.11 1996.43 4202.07 2078.37 4194.19C2151.16 4187.2 2242.54 4150.48 2284.64 4061.89C2326.75 3973.31 2311.27 3854.08 2241.12 3804.68C2143.89 3735.88 1969.53 3862.61 1900.23 3957.02C1895.04 3964.13 1831.7 4073.4 1816.5 4101.46C1824.33 4000.21 1832.83 3899.34 1844.06 3800.54C1858.84 3666.82 1879.94 3534.55 1907.22 3404.57C1913.73 3407.93 2087.25 3497.68 2171.55 3489.66C2244.33 3482.68 2335.72 3445.95 2377.82 3357.24C2419.07 3270.46 2404.35 3149.55 2334.3 3100.15C2237.07 3031.35 2062.7 3158.09 1993.41 3252.49C1988.88 3258.7 1940.54 3341.33 1917.89 3381.81L1912.32 3377.93C1942.34 3248.19 1980.75 3122.38 2027.11 3002C2052.03 2935.27 2078.56 2873.46 2105.37 2813.97C2136.43 2835.31 2279.17 2930.36 2355.26 2934.37C2428.23 2938.37 2521.88 2915.74 2570.97 2833.89C2620.06 2752.03 2614.02 2631.5 2548.31 2571.76C2457.12 2488.73 2273.69 2588.44 2197.23 2671.85C2194.39 2675.08 2175.14 2701.07 2154.46 2729.52C2154.46 2723.32 2154.46 2716.59 2154.46 2707.8C2157.48 2701.33 2160.6 2694.87 2163.9 2688.4C2209.69 2594 2255.85 2511.36 2297.11 2438.69C2320.9 2397.56 2342.99 2361.1 2363.85 2327.22C2402.27 2326.18 2557.09 2319.84 2624.87 2276.26C2690.96 2233.72 2766.48 2154.45 2782.43 2050.99C2798.1 1949.61 2752.51 1844.08 2674.15 1832.57C2565.31 1816.54 2436.07 2020.73 2396.23 2142.94C2392.83 2153.54 2352.99 2327.22 2354.97 2327.22H2357.33C2336.76 2359.16 2314.95 2393.81 2291.25 2432.35C2248.96 2503.61 2201.57 2584.56 2154.46 2677.41C2153.52 2533.22 2134.92 2233.85 1996.05 2215.74C1812.63 2191.82 1760.05 2478.78 1873.8 2634.35C1953.38 2743.36 2058.55 2758.23 2114.44 2757.46C2079.22 2829.23 2043.92 2906.56 2010.59 2990.23C1961.89 3110.35 1921.08 3236.15 1888.62 3366.16C1888.62 3367.58 1888.06 3369.26 1887.68 3370.82C1888.24 3326.98 1886.83 3204.12 1885.89 3194.68C1873.33 3061.87 1792.14 2815.52 1684.52 2788.24C1607.02 2768.58 1541.31 2851.86 1535.18 2955.19C1528.85 3060.58 1584.64 3166.1 1639.02 3232.83C1700.38 3307.84 1870.78 3380.64 1884.47 3386.33C1853.88 3519.72 1829.85 3655.77 1812.53 3793.56C1802.05 3873.86 1793.65 3955.08 1785.35 4036.68C1785.35 3998.66 1784.4 3964.65 1783.93 3959.99C1771.37 3827.18 1690.09 3580.83 1582.57 3553.54C1504.97 3533.89 1439.36 3617.04 1433.13 3720.36C1426.8 3825.89 1482.69 3931.41 1536.97 3998.01C1591.25 4064.61 1736.54 4131.6 1774.87 4148.41C1772.13 4179.7 1769.01 4211 1766.28 4242.29C1753.15 4392.82 1740.6 4542.96 1724.83 4689.86C1719.36 4741.59 1712.56 4792.28 1705.95 4842.98C1705.95 4809.22 1705.1 4780.77 1704.63 4776.51C1692.07 4643.7 1610.89 4397.34 1503.27 4370.06C1425.67 4350.53 1360.06 4433.68 1353.83 4537.01C1347.6 4642.4 1403.39 4748.06 1457.67 4814.66C1510.35 4879.31 1643.17 4941.65 1688.77 4961.95C1680.75 5013.68 1672.82 5065.4 1663.38 5114.93C1656.39 5148.56 1651.39 5181.66 1642.99 5214.9L1619.76 5313.44C1603.24 5375.38 1586.63 5439.39 1569.45 5499.27C1557.74 5540.91 1546.03 5580.48 1534.33 5620.31C1540.27 5568.58 1550.28 5467.84 1550.47 5459.31C1549.29 5341.52 1526.09 5226.11 1483.07 5124.11C1483.35 5111.13 1482.74 5098.15 1481.27 5085.32C1469.19 4983.03 1399.05 4906.99 1322.86 4934.79C1217.13 4973.59 1150.01 5227.7 1145.01 5361.54C1145.01 5369.43 1148.5 5455.43 1151.52 5509.74C1146.24 5478.19 1141.33 5447.54 1135.57 5415.21C1124.43 5350.55 1112.06 5287.57 1098.84 5219.16C1091.54 5186.49 1084.24 5153.47 1076.94 5120.11C1070.15 5086.74 1059.86 5052.73 1051.36 5018.72C1031.91 4938.28 1008.03 4860.69 982.54 4783.1C1023.51 4770.17 1168.33 4718.44 1226.48 4658.05C1284.63 4597.66 1345.8 4497.57 1345.33 4391.78C1344.77 4288.33 1283.78 4198.45 1205.43 4210.74C1096.58 4226.9 1002.18 4464.33 982.446 4595.46C981.218 4603.61 974.799 4699.82 971.967 4752.84C956.39 4706.16 941.097 4659.6 924.199 4613.05C875.581 4478.95 823.376 4345.23 771.643 4212.16C755.783 4171.3 740.395 4130.17 724.441 4089.18C739.074 4084.65 912.209 4029.56 977.348 3961.02C1035.31 3900.24 1096.67 3800.67 1096.11 3694.76C1095.64 3591.3 1034.65 3501.56 956.296 3513.71C847.449 3529.88 753.046 3767.31 733.315 3898.43C731.805 3908.26 722.648 4046.76 721.609 4082.2C687.341 3991.67 653.828 3901.15 623.43 3810.63C581.871 3687.93 546.174 3561.67 516.565 3432.63C523.362 3430.56 704.239 3374.31 771.454 3304.09C829.418 3243.31 890.78 3143.73 890.213 3037.82C890.213 2934.37 828.757 2844.62 750.402 2856.77C641.555 2872.94 547.152 3110.37 527.422 3241.5C526.1 3250.03 519.114 3355.69 516.565 3405.99L510.429 3406.89C483.187 3275.8 464.547 3141.64 454.731 3006.01C448.595 2931.52 445.857 2859.88 444.252 2790.18C478.709 2784.36 636.08 2755.65 701.218 2701.59C763.619 2649.86 832.722 2560.12 840.652 2454.85C848.393 2351.4 794.961 2253.5 716.134 2253.25C606.72 2253.25 493.814 2474.77 463.699 2602.4C462.094 2609.26 451.144 2682.19 443.686 2735.47C443.686 2704.05 442.459 2671.46 442.553 2641.33C442.553 2527.92 448.028 2424.07 453.126 2332.26C456.43 2280.53 460.112 2232.94 463.888 2188.84C495.608 2159.1 622.108 2036.64 661.097 1949.22C698.858 1863.87 730.105 1740.63 701.784 1642.22C674.03 1545.74 593.504 1492.21 523.551 1541.86C426.316 1610.66 400.827 1878.09 416.781 2010.77C418.197 2022.15 454.542 2197.25 456.619 2195.7L458.507 2193.89C454.259 2236.18 450.011 2281.57 446.14 2331.35C439.438 2423.17 432.546 2527.14 430.564 2640.94C430.564 2661.89 429.997 2683.36 429.809 2705.6C388.082 2617.54 256.484 2370.54 114.313 2422.91C-58.0676 2483.17 -18.6071 2691.89 120.732 2737.28Z" fill="black"/>
<path opacity="0.15" d="M6477.85 3295.03C6381.75 3326.46 6260.72 3302.79 6222.96 3294.26C6222.96 3365 6221.83 3439.48 6216.73 3516.94C6210.34 3630.03 6196.63 3742.12 6175.76 3851.88C6175.76 3853.17 6175.1 3854.47 6174.82 3855.76C6189.07 3825.24 6230.89 3741.44 6234.57 3735.49C6287.44 3651.95 6425.36 3532.85 6508.34 3581.35C6568.29 3616.13 6585.85 3714.41 6555.54 3789.42C6525.24 3864.42 6451.23 3903.99 6391.57 3915.89C6324.35 3928.82 6182.75 3873.09 6171.51 3868.43C6148.2 3979.43 6119.5 4088.17 6085.6 4193.93C6066.16 4255.74 6045.11 4317.17 6023.49 4378.34C6036.42 4352.47 6048.13 4329.32 6049.92 4326.61C6102.79 4242.94 6240.71 4123.97 6323.69 4172.33C6383.64 4207.25 6401.2 4305.53 6370.89 4380.53C6340.59 4455.54 6267.05 4494.98 6206.91 4506.88C6146.78 4518.77 6025 4474.42 5992.99 4462C5984.5 4485.28 5976.19 4508.82 5967.69 4532.09C5926.72 4643.83 5885.38 4755.3 5847.43 4866.12C5833.93 4904.92 5821.84 4944.36 5809.66 4983.55C5821.09 4960.53 5830.9 4941.26 5832.6 4938.54C5885.47 4854.87 6023.39 4735.9 6106.37 4784.27C6166.32 4819.18 6183.88 4917.46 6153.58 4992.47C6123.27 5067.47 6049.73 5106.91 5989.6 5118.81C5931.82 5130.32 5819.67 5090.49 5781.91 5076.01C5770.2 5116.61 5758.4 5157.22 5748.49 5197.31C5742.07 5224.85 5734.52 5250.85 5729.61 5278.91C5724.7 5306.97 5718.38 5334.13 5712.81 5361.28C5703.37 5414.18 5693.93 5468.75 5685.62 5520.6C5679.76 5556.68 5674.76 5591.21 5669.57 5625.87C5682.6 5587.07 5709.22 5511.04 5712.05 5504.96C5755 5411.33 5878.11 5265.07 5965.71 5295.72C6028.77 5317.7 6057 5411.2 6035.57 5491.64C6014.14 5572.07 5945.13 5626.39 5887.45 5650.57C5824.01 5677.08 5683.45 5652.9 5665.98 5649.66C5657.49 5707.21 5649.74 5763.21 5643.04 5816.23C5637.38 5859.94 5632.28 5901.71 5627.65 5941.79H5571.01C5576.8 5897.57 5583.1 5851.23 5589.89 5802.78C5598.29 5744.33 5608.11 5682.12 5618.21 5618.37C5575.92 5595.17 5534.65 5568.57 5494.64 5538.71C5448.38 5607.38 5329.81 5687.68 5314.42 5697.9C5330.57 5752.21 5346.71 5804.85 5362.38 5854.25C5371.82 5884.51 5381.26 5913.47 5390.7 5941.79H5332.17C5326.32 5922.48 5320.37 5902.78 5314.33 5882.7C5297.81 5827.61 5280.91 5768.38 5264.01 5707.21C5246.93 5712.13 5107.87 5750.79 5043.01 5730.75C4984.2 5712.51 4913.02 5666.99 4886.68 5587.33C4860.34 5507.67 4883.94 5413.27 4945.68 5384.82C5031.4 5345.38 5162.15 5478.71 5210.01 5567.68C5212.85 5572.98 5238.33 5634.53 5254.76 5673.85C5247.96 5648.76 5241.17 5624.58 5234.37 5598.71C5220.68 5547.63 5208.13 5496.16 5194.53 5440.82C5188.62 5413.83 5182.64 5386.5 5176.6 5358.83C5170.18 5331.67 5166.02 5301.8 5160.55 5273.09C5148.84 5206.1 5139.4 5137.43 5131.09 5067.86C5098.43 5084.15 4981.75 5139.76 4921.42 5133.94C4861.1 5128.12 4785.86 5097.86 4751.5 5024.67C4717.13 4951.47 4729.5 4853.19 4787.46 4812.2C4867.71 4755.56 5011.77 4860.18 5068.98 4938.15C5072.56 4942.94 5109 5005.27 5128.54 5039.93C5123.73 4998.16 5119.1 4956.52 5114.95 4913.97C5103.81 4791.12 5095.31 4666.46 5086.63 4542.05C5083.89 4503.9 5080.87 4466.01 5077.94 4427.99C5066.43 4434.07 4928.79 4504.16 4860.82 4497.7C4800.68 4491.88 4725.25 4461.62 4690.42 4388.42C4655.58 4315.23 4668.52 4216.82 4726.39 4175.95C4806.63 4119.18 4950.69 4223.8 5007.9 4301.78C5012.24 4307.73 5064.54 4397.47 5077.09 4421.14C5070.58 4337.47 5063.59 4254.19 5054.25 4172.59C5042.05 4062.16 5024.68 3952.92 5002.23 3845.54C4996.76 3848.39 4853.45 3922.49 4784.16 3915.76C4724.03 3910.07 4648.6 3879.81 4613.76 3806.49C4578.93 3733.17 4591.77 3634.75 4649.64 3593.37C4729.97 3536.6 4873.94 3641.22 4931.15 3719.2C4934.92 3724.24 4974.86 3792.52 4993.26 3825.63L4997.89 3822.39C4973.21 3715.31 4941.62 3611.44 4903.49 3512.03C4882.91 3456.94 4861 3405.86 4838.91 3356.85C4813.24 3374.44 4695.33 3452.8 4632.45 3456.29C4572.23 3459.53 4494.81 3440.78 4454.32 3373.27C4413.82 3305.77 4418.82 3206.06 4473.2 3156.79C4548.72 3088.25 4699.76 3170.63 4763.2 3239.43C4765.56 3242.01 4781.42 3263.48 4798.51 3287.02C4798.51 3281.84 4798.51 3275.9 4798.51 3269.04L4790.96 3253.14C4753.2 3175.54 4715.44 3106.88 4680.88 3046.23C4661.25 3012.21 4643.12 2981.57 4625.75 2954.15C4594.03 2953.38 4466.12 2948.07 4410.23 2912.12C4354.34 2876.17 4293.26 2811.51 4280.05 2726.03C4266.83 2640.55 4304.78 2555.07 4369.54 2545.63C4459.41 2532.7 4566.18 2700.82 4599.04 2802.07C4601.87 2810.74 4634.72 2954.28 4633.12 2954.28H4631.23C4648.22 2980.14 4666.16 3009.37 4685.41 3041.18C4720.34 3100.02 4759.43 3167.01 4798.7 3243.57C4799.45 3124.59 4814.84 2877.21 4929.54 2862.21C5080.59 2842.55 5124.2 3079.59 5030.46 3208C4964.38 3298.53 4877.9 3310.29 4831.74 3309.65C4860.82 3369 4889.99 3432.89 4917.18 3502.07C4957.44 3601.2 4991.15 3705.07 5017.9 3812.44C5017.9 3813.6 5018.38 3815.02 5018.75 3816.32C5018.28 3779.98 5019.41 3678.59 5020.17 3670.83C5030.55 3561.17 5097.58 3357.62 5186.51 3334.61C5250.51 3318.44 5304.79 3387.11 5309.89 3472.46C5314.99 3557.81 5268.92 3646.78 5223.99 3701.74C5173.29 3763.81 5032.54 3823.82 5021.3 3828.6C5046.57 3938.74 5066.44 4051.06 5080.78 4164.83C5089.46 4231.04 5096.64 4298.16 5103.24 4365.53C5103.24 4334.11 5104 4306.05 5104.38 4302.17C5114.76 4192.5 5181.88 3989.09 5270.72 3966.58C5334.72 3950.29 5389 4019.09 5394.1 4104.31C5399.29 4191.47 5353.22 4278.63 5308.19 4333.59C5263.16 4388.55 5143.37 4444.03 5111.65 4457.87C5114.01 4483.73 5116.55 4509.59 5118.82 4535.46C5129.68 4659.73 5140.06 4783.75 5152.99 4905.05C5157.53 4947.72 5163.19 4989.62 5168.67 5031.52C5168.67 5003.59 5169.42 4979.79 5169.8 4976.56C5180.18 4866.9 5247.21 4663.48 5336.14 4640.98C5400.14 4624.69 5454.42 4693.48 5459.52 4778.7C5464.62 4863.93 5418.55 4953.03 5373.61 5008.12C5328.68 5063.21 5220.4 5112.99 5182.73 5129.67C5189.34 5172.35 5195.95 5215.15 5203.69 5256.15C5209.54 5283.95 5213.7 5311.24 5220.59 5338.65L5239.47 5420.12C5253.06 5471.21 5266.84 5523.58 5281.01 5573.5C5290.45 5607.89 5300.36 5640.61 5309.99 5673.46C5305.08 5630.91 5296.86 5547.5 5296.68 5540.52C5297.67 5443.27 5316.85 5347.99 5352.37 5263.78C5352.17 5252.92 5352.67 5242.06 5353.88 5231.32C5363.32 5146.87 5421.76 5084.03 5484.63 5107.04C5572.05 5138.86 5627.37 5348.87 5631.52 5459.31C5631.52 5465.77 5628.69 5536.9 5626.14 5581.64C5630.58 5555.78 5634.64 5529.92 5639.36 5504.05C5648.8 5451.03 5658.81 5398.66 5669.76 5342.15L5687.79 5260.29C5693.36 5232.74 5701.86 5204.68 5708.94 5176.62C5726.21 5111.96 5745.94 5047.3 5766.99 4982.64C5733.2 4971.65 5613.49 4929.88 5565.44 4879.19C5517.39 4828.49 5466.22 4748.57 5466.22 4661.28C5466.22 4573.99 5517.01 4501.58 5581.77 4511.27C5671.65 4524.21 5749.62 4720.64 5765.96 4829.01C5766.9 4835.73 5772.28 4915.14 5774.55 4958.97C5787.38 4920.18 5800.13 4881.38 5814.01 4843.49C5854.13 4732.8 5897.36 4622.36 5940.03 4511.92C5953.16 4478.04 5965.9 4444.16 5978.74 4410.28C5966.66 4406.53 5823.73 4361.01 5769.92 4304.49C5722.06 4254.19 5671.36 4171.94 5671.84 4084.65C5672.31 3997.36 5722.62 3925.07 5787.29 3934.64C5877.16 3947.58 5955.14 4144.14 5971.47 4252.38C5972.7 4260.53 5980.25 4374.97 5980.91 4404.2C6009.23 4329.58 6036.89 4254.84 6062 4179.7C6096.37 4078.39 6125.85 3974.11 6150.27 3867.53C6144.61 3865.85 5995.26 3819.29 5940.13 3761.36C5892.27 3711.18 5841.57 3628.93 5842.04 3541.52C5842.52 3454.1 5892.83 3381.81 5957.59 3391.51C6047.47 3404.44 6125.35 3600.87 6141.68 3709.24C6142.81 3716.35 6148.57 3803.51 6150.65 3845.03L6155.75 3845.8C6178.56 3737.68 6194.23 3626.97 6202.57 3515.01C6207.67 3453.58 6209.93 3394.35 6211.26 3336.8C6182.93 3332.02 6052.85 3308.35 5999.04 3263.61C5947.49 3220.93 5890.47 3147.22 5883.86 3059.8C5877.26 2972.38 5921.63 2893.5 5986.67 2893.37C6077.01 2893.37 6170.28 3076.36 6195.21 3181.49C6196.53 3187.18 6205.59 3247.45 6211.73 3291.41C6211.73 3265.55 6212.67 3238.52 6212.58 3213.82C6212.58 3120.2 6208.14 3034.46 6203.89 2958.68C6201.25 2915.48 6198.13 2876.56 6195.02 2840.22C6168.87 2815.65 6064.36 2714.52 6032.17 2642.23C5999.98 2569.95 5975.53 2469.98 5998.56 2388.77C6021.6 2307.56 6087.96 2264.88 6145.83 2305.88C6226.08 2362.65 6247.22 2584.04 6233.91 2693.83C6232.78 2703.27 6202.48 2847.85 6201.06 2846.56L6199.45 2845.01C6203.04 2879.92 6206.54 2917.42 6209.75 2958.55C6215.22 3034.46 6220.88 3120.2 6222.49 3214.21C6222.49 3231.54 6223.06 3249.26 6223.24 3267.1C6257.61 3194.3 6366.36 2990.36 6483.7 3034.33C6625.59 3085.28 6592.83 3257.14 6477.85 3295.03Z" fill="black"/>
<g opacity="0.3">
<path d="M6265.92 585.43V1707.53H5273.26V585.43H5605.94V630.82C5606.42 643.569 5610.45 655.581 5617.2 664.375C5623.96 673.168 5632.92 678.071 5642.24 678.071C5651.56 678.071 5660.52 673.168 5667.28 664.375C5674.03 655.581 5678.06 643.569 5678.54 630.82V585.43H5860.64V630.82C5860.39 637.546 5861.14 644.272 5862.85 650.588C5864.55 656.904 5867.18 662.678 5870.57 667.56C5873.95 672.442 5878.03 676.329 5882.55 678.986C5887.06 681.642 5891.93 683.012 5896.85 683.012C5901.76 683.012 5906.63 681.642 5911.14 678.986C5915.66 676.329 5919.74 672.442 5923.12 667.56C5926.51 662.678 5929.14 656.904 5930.84 650.588C5932.55 644.272 5933.3 637.546 5933.05 630.82V585.43H6265.92Z" stroke="black" stroke-linecap="round" stroke-linejoin="round"/>
<path d="M5457.92 901.223H5333.21V1072.05H5457.92V901.223Z" stroke="black" stroke-linecap="round" stroke-linejoin="round"/>
<path d="M5644.93 901.223H5520.22V1072.05H5644.93V901.223Z" stroke="black" stroke-linecap="round" stroke-linejoin="round"/>
<path d="M5831.94 901.223H5707.24V1072.05H5831.94V901.223Z" stroke="black" stroke-linecap="round" stroke-linejoin="round"/>
<path d="M6018.96 901.223H5894.25V1072.05H6018.96V901.223Z" stroke="black" stroke-linecap="round" stroke-linejoin="round"/>
<path d="M6205.97 901.223H6081.26V1072.05H6205.97V901.223Z" stroke="black" stroke-linecap="round" stroke-linejoin="round"/>
<path d="M5457.92 1164.52H5333.21V1335.35H5457.92V1164.52Z" stroke="black" stroke-linecap="round" stroke-linejoin="round"/>
<path d="M5644.93 1164.52H5520.22V1335.35H5644.93V1164.52Z" stroke="black" stroke-linecap="round" stroke-linejoin="round"/>
<path d="M5831.94 1164.52H5707.24V1335.35H5831.94V1164.52Z" stroke="black" stroke-linecap="round" stroke-linejoin="round"/>
<path d="M6018.96 1164.52H5894.25V1335.35H6018.96V1164.52Z" stroke="black" stroke-linecap="round" stroke-linejoin="round"/>
<path d="M6205.97 1164.52H6081.26V1335.35H6205.97V1164.52Z" stroke="black" stroke-linecap="round" stroke-linejoin="round"/>
<path d="M5457.92 1427.81H5333.21V1598.64H5457.92V1427.81Z" stroke="black" stroke-linecap="round" stroke-linejoin="round"/>
<path d="M5644.93 1427.81H5520.22V1598.64H5644.93V1427.81Z" stroke="black" stroke-linecap="round" stroke-linejoin="round"/>
<path d="M5831.94 1427.81H5707.24V1598.64H5831.94V1427.81Z" stroke="black" stroke-linecap="round" stroke-linejoin="round"/>
<path d="M6018.96 1427.81H5894.25V1598.64H6018.96V1427.81Z" stroke="black" stroke-linecap="round" stroke-linejoin="round"/>
<path d="M6205.97 1427.81H6081.26V1598.64H6205.97V1427.81Z" stroke="black" stroke-linecap="round" stroke-linejoin="round"/>
<path d="M5678.54 459.989V630.819C5678.06 643.568 5674.03 655.58 5667.28 664.373C5660.52 673.167 5651.56 678.07 5642.24 678.07C5632.92 678.07 5623.96 673.167 5617.2 664.373C5610.45 655.58 5606.42 643.568 5605.94 630.819V459.989C5606.42 447.241 5610.45 435.229 5617.2 426.435C5623.96 417.642 5632.92 412.738 5642.24 412.738C5651.56 412.738 5660.52 417.642 5667.28 426.435C5674.03 435.229 5678.06 447.241 5678.54 459.989Z" fill="black" stroke="black" stroke-linecap="round" stroke-linejoin="round"/>
<path d="M5933.05 459.988V630.818C5933.3 637.544 5932.55 644.269 5930.84 650.585C5929.14 656.901 5926.51 662.676 5923.12 667.558C5919.74 672.44 5915.66 676.327 5911.14 678.983C5906.63 681.64 5901.76 683.009 5896.84 683.009C5891.93 683.009 5887.06 681.64 5882.55 678.983C5878.03 676.327 5873.95 672.44 5870.57 667.558C5867.18 662.676 5864.55 656.901 5862.85 650.585C5861.14 644.269 5860.39 637.544 5860.64 630.818V459.988C5861.12 447.273 5865.14 435.293 5871.87 426.523C5878.61 417.753 5887.55 412.863 5896.84 412.863C5906.14 412.863 5915.08 417.753 5921.82 426.523C5928.55 435.293 5932.57 447.273 5933.05 459.988Z" fill="black" stroke="black" stroke-linecap="round" stroke-linejoin="round"/>
</g>
<g opacity="0.3">
<path d="M3648.87 5402.54H3511.32V5838.86H3648.87V5402.54Z" stroke="black" stroke-linecap="round" stroke-linejoin="round"/>
<path d="M3832.95 5179.46H3695.41V5838.86H3832.95V5179.46Z" stroke="black" stroke-linecap="round" stroke-linejoin="round"/>
<path d="M4016.94 4898.32H3879.4V5838.86H4016.94V4898.32Z" stroke="black" stroke-linecap="round" stroke-linejoin="round"/>
<path d="M4201.03 4704.35H4063.49V5838.86H4201.03V4704.35Z" stroke="black" stroke-linecap="round" stroke-linejoin="round"/>
</g>
<g opacity="0.3">
<path d="M2033.33 1193.93C2147.99 848.657 2036.6 441.438 1784.55 284.38C1532.5 127.322 1235.23 279.899 1120.58 625.17C1005.92 970.442 1117.31 1377.66 1369.36 1534.72C1621.41 1691.78 1918.68 1539.2 2033.33 1193.93Z" stroke="black" stroke-miterlimit="10"/>
<path d="M1860.83 1298.37C2017.63 1083.59 2017.63 735.351 1860.83 520.566C1704.04 305.781 1449.82 305.781 1293.03 520.566C1136.24 735.351 1136.24 1083.59 1293.03 1298.37C1449.82 1513.16 1704.04 1513.16 1860.83 1298.37Z" stroke="black" stroke-miterlimit="10"/>
<path d="M1758.7 1158.47C1859.09 1020.95 1859.09 797.989 1758.7 660.472C1658.31 522.955 1495.55 522.955 1395.16 660.472C1294.77 797.989 1294.77 1020.95 1395.16 1158.47C1495.55 1295.98 1658.31 1295.98 1758.7 1158.47Z" stroke="black" stroke-miterlimit="10"/>
<path d="M1679.66 1050.2C1736.4 972.475 1736.4 846.462 1679.66 768.74C1622.93 691.017 1530.94 691.017 1474.2 768.74C1417.46 846.462 1417.46 972.475 1474.2 1050.2C1530.94 1127.92 1622.93 1127.92 1679.66 1050.2Z" stroke="black" stroke-miterlimit="10"/>
<path d="M1638.26 909.367C1638.17 892.776 1634.5 876.594 1627.7 862.859C1620.91 849.124 1611.3 838.451 1600.08 832.184C1588.87 825.917 1576.55 824.337 1564.68 827.642C1552.81 830.948 1541.92 838.991 1533.38 850.759C1524.84 862.527 1519.04 877.493 1516.7 893.773C1514.36 910.052 1515.59 926.915 1520.23 942.239C1524.87 957.563 1532.72 970.662 1542.79 979.886C1552.86 989.109 1564.7 994.045 1576.81 994.071C1584.91 994.088 1592.94 991.906 1600.43 987.649C1607.92 983.392 1614.71 977.145 1620.43 969.269C1626.14 961.393 1630.66 952.045 1633.72 941.763C1636.78 931.482 1638.33 920.471 1638.26 909.367Z" stroke="black" stroke-miterlimit="10"/>
</g>
<path d="M1564.82 926.051H890.496V892.816H1564.82C1568.01 892.851 1571.06 894.61 1573.3 897.71C1575.55 900.811 1576.81 905.001 1576.81 909.369C1576.82 911.543 1576.52 913.699 1575.92 915.714C1575.33 917.728 1574.45 919.563 1573.34 921.112C1572.22 922.661 1570.9 923.894 1569.44 924.742C1567.97 925.589 1566.41 926.034 1564.82 926.051Z" fill="#B2B2B2"/>
<path d="M830.551 790.914L834.327 796.863L904.752 892.688H693.95L618.521 790.914H830.551Z" fill="#B2B2B2"/>
<path d="M618.521 1023.95L694.044 925.797H904.941C877.318 954.467 852.198 987.402 830.079 1023.95H618.521Z" fill="#B2B2B2"/>
<path d="M6515.71 5941.54H6782.02" stroke="#263238" stroke-linecap="round" stroke-linejoin="round"/>
<path d="M2113.21 5941.54H6407.52" stroke="#263238" stroke-linecap="round" stroke-linejoin="round"/>
<path d="M57.6699 5941.54H2046.65" stroke="#263238" stroke-linecap="round" stroke-linejoin="round"/>
<path d="M4532.48 5108.59L4554.95 5341.37C4554.95 5341.37 4582.42 5628.97 4588.75 5695.7C4595.07 5762.43 4592.43 5938.69 4592.43 5938.69H4496.23L4495 5690.53L4497.46 5266.1L4532.48 5108.59Z" fill="#808080" stroke="#263238" stroke-linecap="round" stroke-linejoin="round"/>
<path d="M4592.9 5867.05C4592.9 5907.91 4592.43 5938.69 4592.43 5938.69H4496.23L4495.76 5834.46L4592.9 5867.05Z" fill="white" stroke="#263238" stroke-linecap="round" stroke-linejoin="round"/>
<path d="M4592.71 5911.41C4592.71 5922.66 4592.71 5931.19 4592.71 5935.46V5937.27V5938.56H4496.23V5911.28L4592.71 5911.41Z" fill="white" stroke="#263238" stroke-linecap="round" stroke-linejoin="round"/>
<path d="M4390.03 5812.09C4390.03 5812.09 4353.78 5861.74 4336.31 5871.96C4318.85 5882.18 4291.37 5885.67 4287.6 5897.82C4285.4 5913.02 4284.98 5928.61 4286.37 5943.99H4525.02C4528.46 5927.89 4529.7 5911.05 4528.7 5894.33C4527.67 5883.73 4525.57 5873.37 4522.47 5863.55C4522.47 5863.55 4405.04 5810.4 4390.03 5812.09Z" fill="white" stroke="#263238" stroke-linecap="round" stroke-linejoin="round"/>
<path d="M4525.02 5943.86H4286.18C4285.56 5934.75 4285.31 5925.6 4285.43 5916.45H4528.8C4528.1 5925.71 4526.83 5934.88 4525.02 5943.86Z" fill="white" stroke="#263238" stroke-linecap="round" stroke-linejoin="round"/>
<path d="M4593.75 4778.31C4593.75 4778.31 4592.43 4882.67 4581.19 4911.77C4569.96 4940.87 4547.49 4990.52 4547.49 4990.52C4547.49 4990.52 4518.7 5313.82 4523.7 5344.86C4528.7 5375.89 4544.94 5456.07 4543.71 5512.97C4542.49 5569.87 4521.25 5807.3 4521.25 5807.3C4521.25 5807.3 4527.48 5822.69 4526.25 5827.86C4525.02 5833.03 4522.47 5863.81 4522.47 5863.81C4522.47 5863.81 4483.77 5855.28 4456.39 5844.93C4433.97 5835.69 4411.91 5824.86 4390.31 5812.47C4387.64 5801.99 4387.21 5790.68 4389.08 5779.88C4392.86 5767.99 4402.86 5733.72 4402.86 5733.72C4402.86 5733.72 4399.09 5531.72 4399.09 5497.58C4399.09 5463.44 4379.07 5314.34 4379.07 5283.56C4379.07 5252.78 4355.38 4966.99 4359.06 4934.4C4362.74 4901.81 4365.39 4852.28 4365.39 4852.28L4359.06 4774.69L4593.75 4778.31Z" fill="#A1A1A1" stroke="#263238" stroke-linecap="round" stroke-linejoin="round"/>
<path d="M4463.19 5033.72C4464.13 5127.87 4465.55 5298.95 4463.75 5325.98" stroke="#263238" stroke-linecap="round" stroke-linejoin="round"/>
<path d="M4462.53 4971.64C4462.53 4971.64 4462.53 4983.28 4462.53 5002.16" stroke="#263238" stroke-linecap="round" stroke-linejoin="round"/>
<path d="M4466.3 5363.61C4466.3 5363.61 4473.76 5432.15 4476.22 5515.95C4478.67 5599.75 4467.53 5777.82 4467.53 5777.82C4469.87 5785.5 4471.55 5793.53 4472.54 5801.74C4470.84 5811.81 4468.3 5821.57 4464.98 5830.84" stroke="#263238" stroke-linecap="round" stroke-linejoin="round"/>
<path d="M4559.95 4204.66C4559.95 4204.66 4615.37 4323.76 4623.96 4370.83C4632.55 4417.91 4601.02 4655.33 4601.02 4655.33C4601.02 4655.33 4613.48 4763.96 4609.61 4774.44C4606.75 4781.55 4602.86 4787.8 4598.19 4792.8H4357.46C4352.28 4781.02 4348.4 4768.25 4345.94 4754.91C4343.85 4738.33 4344.5 4721.32 4347.83 4705.12C4352.64 4682.88 4364.07 4427.61 4375.58 4380.53C4387.1 4333.46 4437.23 4246.56 4437.23 4246.56L4559.95 4204.66Z" fill="#92E3A9" stroke="#263238" stroke-linecap="round" stroke-linejoin="round"/>
<path d="M4393.8 4030.98C4395.41 4014.95 4414 4001.37 4420.24 3989.09C4426.47 3976.8 4422.78 3965.29 4427.79 3951.32C4442.7 3910.33 4453.94 3872.05 4488.87 3860.8C4532.29 3847.87 4600.26 3877.87 4620.46 3929.99C4627.46 3949.9 4631.49 3971.52 4632.33 3993.58C4633.18 4015.65 4630.81 4037.73 4625.37 4058.53C4620.4 4079.07 4611.69 4097.53 4600.07 4112.2C4596.58 4116.46 4557.97 4141.16 4558.35 4138.06L4554.48 4179.96L4446.67 4217.72L4441.85 4152.29C4431.28 4152.27 4420.73 4150.97 4410.32 4148.41C4397.96 4144.4 4394.09 4137.93 4396.92 4123.45C4399.75 4108.96 4408.43 4058.01 4408.43 4058.01C4403.35 4053.39 4398.88 4047.62 4395.22 4040.94C4393.96 4037.93 4393.46 4034.43 4393.8 4030.98Z" fill="white" stroke="#263238" stroke-linecap="round" stroke-linejoin="round"/>
<path d="M4436.47 3984.69C4434.59 3992.7 4435.62 4000.33 4438.74 4001.76C4441.85 4003.18 4446.1 3997.88 4448.18 3989.86C4450.26 3981.84 4449.12 3974.21 4445.91 3972.79C4442.7 3971.37 4438.46 3976.67 4436.47 3984.69Z" fill="#263238"/>
<path d="M4462.24 3964.39C4461.03 3957.78 4458.07 3952.03 4453.94 3948.26C4449.8 3944.48 4444.79 3942.95 4439.87 3943.95" stroke="#263238" stroke-linecap="round" stroke-linejoin="round"/>
<path d="M4412.97 4082.71C4417.22 4083.57 4421.57 4082.98 4425.62 4080.99C4429.66 4079.01 4433.3 4075.69 4436.19 4071.33" stroke="#263238" stroke-linecap="round" stroke-linejoin="round"/>
<path d="M4556.18 4088.66C4565.62 4069.39 4560.9 4032.92 4545.23 4024C4529.56 4015.08 4510.77 4047.67 4506.14 4045.47C4501.52 4043.27 4517.09 4006.67 4517.09 4006.67C4506.97 3998.61 4498.79 3986.65 4493.59 3972.27C4488.87 3953.01 4521.91 3933.48 4531.35 3931.54C4540.79 3929.6 4489.06 3860.67 4489.06 3860.67C4532.48 3847.74 4600.45 3877.74 4620.65 3929.86C4627.65 3949.77 4631.68 3971.39 4632.52 3993.45C4633.37 4015.52 4631 4037.6 4625.56 4058.4C4620.59 4078.94 4611.88 4097.41 4600.26 4112.07C4587.58 4122.32 4574.25 4130.97 4560.43 4137.93H4558.54L4531.35 4112.07C4541.42 4108.63 4550.24 4100.31 4556.18 4088.66Z" fill="#263238" stroke="#263238" stroke-linecap="round" stroke-linejoin="round"/>
<path d="M4429.11 4265.18L4392.01 4335.79L4379.64 4708.49L4358.78 4774.83L4332.25 4654.82L4387.29 4322.47L4425.05 4235.05L4429.11 4265.18Z" fill="#263238" stroke="#263238" stroke-linecap="round" stroke-linejoin="round"/>
<path d="M4558.35 4164.05L4425.52 4224.32L4430.34 4297.51L4568.83 4209.83L4558.35 4164.05Z" fill="#92E3A9" stroke="#263238" stroke-linecap="round" stroke-linejoin="round"/>
<path d="M4441.76 4152.28L4467.53 4149.7L4446.57 4192.89L4441.76 4152.28Z" fill="#263238" stroke="#263238" stroke-linecap="round" stroke-linejoin="round"/>
<path d="M4083.5 4304.1L4212.45 4174.53L4274.57 4516.19L4255.5 4544.9L4083.5 4304.1Z" fill="#DEDEDE" stroke="#263238" stroke-linecap="round" stroke-linejoin="round"/>
<path d="M4139.86 4126.16L4262.11 4524.46L4379.64 4709L4307.99 4790.21L4201.22 4564.55C4201.22 4564.55 4064.62 4328.94 4060.75 4313.29C4056.88 4297.64 4139.86 4126.16 4139.86 4126.16Z" fill="white" stroke="#263238" stroke-linecap="round" stroke-linejoin="round"/>
<path d="M4365.2 4541.27L4294.68 4504.81C4294.68 4504.81 4274.29 4464.07 4271.17 4455.54C4268.06 4447 4233.41 4429.67 4228.88 4423.34C4224.35 4417 4208.58 4393.33 4206.98 4404.07C4205.37 4414.8 4202.26 4425.4 4210.09 4431.87C4218.85 4442.09 4226.74 4453.63 4233.6 4466.27C4233.6 4466.27 4195.84 4461.87 4192.91 4474.8C4189.99 4487.74 4199.14 4513.6 4199.14 4513.6C4205.33 4514.45 4211.26 4517.39 4216.42 4522.13C4221.05 4528.6 4230.49 4556.4 4241.44 4562.87C4252.39 4569.34 4291.56 4571.53 4291.56 4571.53L4335.37 4618.61L4365.2 4541.27Z" fill="white" stroke="#263238" stroke-linecap="round" stroke-linejoin="round"/>
<path d="M4319.41 4514.9L4298.74 4504.29C4298.74 4504.29 4278.16 4573.22 4279.86 4574L4301.1 4582.92L4319.41 4514.9Z" fill="#92E3A9" stroke="#263238" stroke-linecap="round" stroke-linejoin="round"/>
<path d="M4591.29 4366.44C4593.54 4376.36 4594.66 4386.7 4594.6 4397.09C4593.65 4421.92 4543.05 4715.08 4539.18 4733.31C4535.31 4751.55 4503.88 4762.02 4494.34 4758.14C4484.81 4754.26 4299.68 4599.21 4297.79 4592.62C4295.91 4586.02 4310.16 4512.96 4319.7 4508.95C4329.23 4504.94 4448.46 4573.61 4448.46 4573.61C4448.46 4573.61 4453.84 4389.59 4462.06 4357.52" fill="#92E3A9"/>
<path d="M4591.29 4366.44C4593.54 4376.36 4594.66 4386.7 4594.6 4397.09C4593.65 4421.92 4543.05 4715.08 4539.18 4733.31C4535.31 4751.55 4503.88 4762.02 4494.34 4758.14C4484.81 4754.26 4299.68 4599.21 4297.79 4592.62C4295.91 4586.02 4310.16 4512.96 4319.7 4508.95C4329.23 4504.94 4448.46 4573.61 4448.46 4573.61C4448.46 4573.61 4453.84 4389.59 4462.06 4357.52" stroke="#263238" stroke-linecap="round" stroke-linejoin="round"/>
<path d="M4454.22 4576.32L4497.17 4607.74" stroke="#263238" stroke-linecap="round" stroke-linejoin="round"/>
<path d="M4498.12 4588.09L4469.51 4578.91" stroke="#263238" stroke-linecap="round" stroke-linejoin="round"/>
<path d="M2582.11 1760.93L2621.95 2004.83L2745.9 1960.6L2756.85 2010L2576.07 2161.04L2536.89 2039.36L2582.11 1760.93Z" fill="white" stroke="#263238" stroke-linecap="round" stroke-linejoin="round"/>
<path d="M2401.42 1679.08L2278.51 1758.48L2309.57 2146.82L2513.1 2151.61L2569.93 1972.76L2582.11 1760.94L2490.25 1698.61L2401.42 1679.08Z" fill="white" stroke="#263238" stroke-linecap="round" stroke-linejoin="round"/>
<path d="M2367.34 1705.33L2392.55 1852.36L2523.01 1863.87L2514.61 1722.66L2490.26 1698.34C2490.26 1698.34 2386.22 1662.39 2367.34 1705.33Z" fill="white" stroke="#263238" stroke-linecap="round" stroke-linejoin="round"/>
<path d="M2509.42 1392.63C2536.7 1397.68 2562 1416.17 2572.48 1447.46C2589.57 1498.16 2575.31 1548.98 2581.07 1560.62C2586.59 1574.47 2591.35 1588.87 2595.33 1603.68L2572.48 1623.21C2572.48 1623.21 2548.41 1684.51 2539.91 1692.26C2531.42 1700.02 2498.37 1677.78 2498.37 1677.78L2475.53 1736.36L2401.42 1650.49L2432.86 1568.51C2432.86 1568.51 2404.54 1494.28 2418.6 1447.46C2431.91 1403.63 2472.51 1385.91 2509.42 1392.63Z" fill="white" stroke="#263238" stroke-linecap="round" stroke-linejoin="round"/>
<path d="M2568.04 1559.2C2568.04 1567.86 2565.59 1574.98 2562.57 1574.98C2559.55 1574.98 2557.09 1567.86 2557.09 1559.2C2557.09 1550.53 2559.55 1543.42 2562.57 1543.42C2565.59 1543.42 2568.04 1550.15 2568.04 1559.2Z" fill="#263238"/>
<path d="M2554.83 1637.95C2548.95 1636.36 2543.74 1631.73 2540.29 1625.02Z" fill="white"/>
<path d="M2554.83 1637.95C2548.95 1636.36 2543.74 1631.73 2540.29 1625.02" stroke="#263238" stroke-linecap="round" stroke-linejoin="round"/>
<path d="M2553.6 1523.51C2553.6 1523.51 2566.91 1513.55 2572.48 1526.87Z" fill="white"/>
<path d="M2553.6 1523.51C2553.6 1523.51 2566.91 1513.55 2572.48 1526.87" stroke="#263238" stroke-linecap="round" stroke-linejoin="round"/>
<path d="M2309.47 2146.82C2309.47 2146.82 2252.08 2229.07 2241.6 2386.58C2231.12 2544.09 2215.45 2841.13 2215.45 2841.13L2160.6 3313.66L2228.47 3317.15L2338.27 2855.49L2411.43 2493.39L2497.62 2858.46L2554.26 3321.03L2619.59 3310.3L2614.87 2744.01L2604.39 2651.94C2590.51 2529.99 2566.17 2410.71 2531.89 2296.57L2528.68 2285.84L2512.63 2151.09L2309.47 2146.82Z" fill="#263238" stroke="#263238" stroke-linecap="round" stroke-linejoin="round"/>
<path d="M2579.56 1449.79C2579.56 1449.79 2586.45 1488.59 2544.73 1527.38L2502.91 1566.18C2502.91 1566.18 2497.62 1834.64 2492.43 1849C2487.23 1863.35 2361.77 1709.33 2369.7 1677.13C2379.06 1630.63 2385.07 1582.99 2387.64 1534.88C2387.64 1509.93 2390.66 1440.48 2422 1397.55C2453.34 1354.61 2589.19 1365.35 2597.03 1401.17C2598.28 1405.93 2598.82 1410.98 2598.62 1416.03C2598.41 1421.08 2597.47 1426.03 2595.84 1430.56C2594.21 1435.1 2591.93 1439.15 2589.13 1442.45C2586.33 1445.75 2583.08 1448.25 2579.56 1449.79Z" fill="#263238" stroke="#263238" stroke-linecap="round" stroke-linejoin="round"/>
<path d="M2278.51 1758.48L2136.9 2081.77L2101.41 2375.33L2139.17 2379.33L2209.88 2099.62L2292.39 1961.38C2292.39 1961.38 2297.2 1810.59 2278.51 1758.48Z" fill="white" stroke="#263238" stroke-linecap="round" stroke-linejoin="round"/>
<path d="M2175.42 2444.77C2175.42 2444.77 2159.84 2416.32 2158.14 2412.83C2156.44 2409.34 2139.26 2379.85 2139.26 2379.85C2139.26 2379.85 2106.13 2362.14 2101.5 2375.84C2096.88 2389.55 2089.14 2488.35 2088.29 2496.63C2087.44 2504.9 2094.33 2510.85 2094.33 2510.85L2100.37 2470.63C2100.37 2470.63 2102.92 2512.02 2102.92 2523.78C2102.92 2535.55 2111.51 2533.22 2111.51 2533.22L2114.15 2471.8C2114.15 2471.8 2122.74 2521.46 2124.44 2533.22C2124.5 2534.91 2124.98 2536.51 2125.8 2537.77C2126.62 2539.03 2127.73 2539.86 2128.95 2540.14C2130.16 2540.41 2131.41 2540.1 2132.48 2539.27C2133.55 2538.43 2134.38 2537.12 2134.83 2535.55C2134.83 2532.06 2136.53 2465.98 2136.53 2465.98C2136.53 2465.98 2144.27 2506.07 2145.97 2515.51C2147.67 2524.95 2155.41 2511.76 2155.41 2511.76L2153.9 2447.1C2153.9 2447.1 2157.96 2449.94 2169.19 2455.89C2180.42 2461.84 2175.42 2444.77 2175.42 2444.77Z" fill="white" stroke="#263238" stroke-linecap="round" stroke-linejoin="round"/>
<path d="M2154.08 2447.74L2145.21 2412.83" stroke="#263238" stroke-linecap="round" stroke-linejoin="round"/>
<path d="M2745.9 1960.6L2760.63 1902.02L2786.11 1872.41C2786.11 1872.41 2787.34 1844.47 2794.99 1842.79C2802.63 1841.11 2805.18 1846.28 2803.86 1861.93C2802.5 1873.12 2799.48 1883.82 2794.99 1893.35C2794.99 1893.35 2811.51 1877.58 2815.28 1886.37C2819.06 1895.17 2817.83 1973.4 2814.06 1983.88C2810.28 1994.35 2756.85 2009.74 2756.85 2009.74L2745.9 1960.6Z" fill="white" stroke="#263238" stroke-linecap="round" stroke-linejoin="round"/>
<path d="M2794.61 1893.36L2781.02 1912.24C2781.02 1912.24 2775.92 1983.62 2781.02 1983.62H2814.06" fill="white"/>
<path d="M2794.61 1893.36L2781.02 1912.24C2781.02 1912.24 2775.92 1983.62 2781.02 1983.62H2814.06" stroke="#263238" stroke-linecap="round" stroke-linejoin="round"/>
<path d="M2160.6 3313.66L2141.72 3386.33C2134.76 3402.35 2129.79 3419.83 2126.99 3438.06C2124.92 3461.08 2190.15 3449.57 2200.63 3449.57C2210.54 3450.77 2220.41 3446.7 2228.19 3438.19C2234.52 3429.53 2228.19 3317.15 2228.19 3317.15L2160.6 3313.66Z" fill="white" stroke="#263238" stroke-linecap="round" stroke-linejoin="round"/>
<path d="M2619.97 3312.63L2643 3376.38C2643 3376.38 2695.58 3405.22 2697.75 3422.55C2699.92 3439.88 2697.75 3448.41 2685.1 3451.26C2672.45 3454.1 2537.74 3451.26 2537.74 3451.26V3393.71C2537.74 3379.23 2554.64 3323.36 2554.64 3323.36L2619.97 3312.63Z" fill="white" stroke="#263238" stroke-linecap="round" stroke-linejoin="round"/>
<path d="M2887.32 5100.84L2858.9 5139.76L1725.49 3921.58L1753.82 3882.79L2887.32 5100.84Z" fill="white" stroke="#263238" stroke-linecap="round" stroke-linejoin="round"/>
<path d="M1725.49 5100.84L1753.82 5139.76L2887.32 3921.58L2858.9 3882.79L1725.49 5100.84Z" fill="white" stroke="#263238" stroke-linecap="round" stroke-linejoin="round"/>
<path d="M2911.29 3523.8H2871.17V5943.61H2911.29V3523.8Z" fill="white" stroke="#263238" stroke-linecap="round" stroke-linejoin="round"/>
<path d="M1769.96 3523.8H1729.84V5943.61H1769.96V3523.8Z" fill="white" stroke="#263238" stroke-linecap="round" stroke-linejoin="round"/>
<path d="M1748.24 3865.59V3920.55H2870.6V3865.59H1748.24Z" fill="white" stroke="#263238" stroke-linecap="round" stroke-linejoin="round"/>
<path d="M1748.15 5107.05V5162.01H2870.51V5107.05H1748.15Z" fill="white" stroke="#263238" stroke-linecap="round" stroke-linejoin="round"/>
<path d="M2711.16 5100.84L2682.74 5139.76L1549.34 3921.58L1577.75 3882.79L2711.16 5100.84Z" fill="white" stroke="#263238" stroke-linecap="round" stroke-linejoin="round"/>
<path d="M1549.34 5100.84L1577.75 5139.76L2711.16 3921.58L2682.74 3882.79L1549.34 5100.84Z" fill="white" stroke="#263238" stroke-linecap="round" stroke-linejoin="round"/>
<path d="M1572.09 3865.59V3920.55H2694.45V3865.59H1572.09Z" fill="white" stroke="#263238" stroke-linecap="round" stroke-linejoin="round"/>
<path d="M1572.09 5106.92V5161.88H2694.45V5106.92H1572.09Z" fill="white" stroke="#263238" stroke-linecap="round" stroke-linejoin="round"/>
<path d="M1574.92 3523.8H1534.8V5943.61H1574.92V3523.8Z" fill="white" stroke="#263238" stroke-linecap="round" stroke-linejoin="round"/>
<path d="M2733.53 3523.8H2693.41V5943.61H2733.53V3523.8Z" fill="white" stroke="#263238" stroke-linecap="round" stroke-linejoin="round"/>
<path d="M2979.26 3455.13H1465.79V3560.14H2979.26V3455.13Z" fill="#263238" stroke="#263238" stroke-linecap="round" stroke-linejoin="round"/>
<path d="M2777.71 2761.59V22.6289" stroke="#263238" stroke-linecap="round" stroke-linejoin="round"/>
<path d="M3956.05 1661.22V22.6289" stroke="#263238" stroke-linecap="round" stroke-linejoin="round"/>
<path d="M3586.94 4077.67C3586.94 4064.74 3587.5 4051.8 3586.94 4038.87C3582.3 3901.82 3557.55 3767.45 3514.15 3643.8L3757.52 3351.54L3534.35 3003.42H3476.01L3470.92 3079.59L3301.65 3283.01C3213.3 3188.08 3110.41 3121.76 3000.69 3089.03L2985.68 2657.62H2927.34L2662.45 3094.07C2552.1 3131.28 2449.46 3202.69 2362.43 3302.79L2108.39 3051.53H2050.05L2058.26 3103.25L2074.41 3116.18L1910.33 3426.55L2158.14 3672.25C2112.33 3812.65 2090.38 3965.47 2093.95 4119.18L1786.29 4236.73L1867.38 4635.29L1818.76 4682.88H1877.1L2180.71 4566.49C2231.79 4698.86 2303.38 4814.32 2390.47 4904.79L2261.89 5320.16L2510.55 5464.74L2514.89 5501.07H2573.23L2700.21 5093.46C2805.24 5121.99 2913.56 5118.5 3017.5 5083.25L3145.98 5408.22L3119.07 5487.88H3177.42L3474.31 5266.62L3318.93 4873.62C3401.26 4779.82 3467.99 4662.98 3514.62 4530.93L3780.94 4595.59L3784.43 4610.72H3842.49L3901.96 4154.61L3586.94 4077.67ZM2856.26 4542.18C2790.71 4546.37 2725.73 4523.85 2669.52 4477.46C2613.32 4431.08 2568.41 4362.9 2540.49 4281.56C2512.57 4200.22 2502.87 4109.36 2512.64 4020.48C2522.4 3931.59 2551.19 3848.67 2595.35 3782.18C2639.51 3715.7 2697.07 3668.65 2760.76 3646.98C2824.44 3625.3 2891.38 3629.98 2953.12 3660.41C3014.87 3690.85 3068.64 3745.68 3107.63 3817.97C3146.63 3890.25 3169.11 3976.76 3172.22 4066.55C3174.29 4126.2 3167.76 4185.83 3153 4242.03C3138.24 4298.22 3115.53 4349.88 3086.19 4394.05C3056.85 4438.23 3021.44 4474.04 2981.98 4499.46C2942.53 4524.88 2899.81 4539.39 2856.26 4542.18Z" fill="#263238" stroke="#263238" stroke-linecap="round" stroke-linejoin="round"/>
<path d="M3456.28 4530.54L3784.43 4610.85L3843.9 4154.74L3528.69 4077.15C3528.69 4064.22 3529.16 4051.29 3528.69 4038.35C3524.06 3901.3 3499.3 3766.94 3455.91 3643.29L3699.18 3350.51L3476.01 3002.38L3243.31 3283.01C3154.96 3188.08 3052.07 3121.76 2942.35 3089.03L2927.34 2657.62L2589.57 2679.61L2603.92 3093.42C2493.46 3130.79 2390.75 3202.42 2303.71 3302.79L2050.05 3051.53L1851.81 3426.55L2099.61 3672.25C2053.8 3812.65 2031.85 3965.47 2035.42 4119.18L1727.85 4236.86L1818.67 4683.01L2122.27 4566.62C2173.31 4699.17 2244.9 4814.82 2332.04 4905.43L2203.46 5320.8L2514.99 5501.85L2641.49 5093.46C2746.52 5121.99 2854.84 5118.5 2958.78 5083.25L3118.7 5487.88L3416.16 5267.27L3260.59 4873.62C3342.98 4779.75 3409.71 4662.75 3456.28 4530.54ZM2450.7 4109.74C2447.58 4019.94 2463.97 3930.89 2497.8 3853.85C2531.63 3776.8 2581.37 3715.24 2640.75 3676.92C2700.12 3638.61 2766.45 3625.28 2831.35 3638.61C2896.26 3651.94 2956.82 3691.33 3005.38 3751.81C3053.94 3812.29 3088.31 3891.14 3104.16 3978.38C3120.01 4065.62 3116.62 4157.34 3094.41 4241.94C3072.2 4326.54 3032.18 4400.22 2979.41 4453.66C2926.63 4507.1 2863.47 4537.91 2797.92 4542.18C2710.01 4547.91 2624.04 4505.56 2558.93 4424.46C2493.81 4343.37 2454.88 4230.16 2450.7 4109.74Z" fill="#92E3A9" stroke="#263238" stroke-linecap="round" stroke-linejoin="round"/>
<path d="M4555.52 2578.87C4592.54 2475.67 4613.96 2363.28 4618.48 2248.46L4883.85 2168.02L4822.39 1788.09H4764.05L4766.7 1805.03L4568.45 1865.16C4531.6 1746.33 4475.57 1640.48 4404.56 1555.57L4520.87 1230.08L4266.26 1058.73H4207.92L4255.12 1090.29L4154.68 1371.42C4062.59 1337.57 3966.05 1333.14 3872.51 1358.49L3759.98 1033.9H3701.64L3713.06 1064.29L3503.49 1200.98L3613.37 1518.46C3538.17 1596.24 3476.84 1696.39 3434 1811.36L3173.07 1727.44H3114.73V1756.4L3166.56 1767.4L3108.5 2105.82L3365.85 2188.72C3364.38 2314.34 3382.97 2438.89 3420.32 2553.65L3203.19 2787.72L3343.28 3031.61L3320.34 3093.17H3378.59L3592.41 2862.59C3661.15 2941.63 3741.71 2999.02 3828.42 3030.71L3826.63 3416.72L4110.4 3419.31L4112.1 3044.29C4200.32 3021 4283.86 2972.05 4357.08 2900.74L4539.09 3102.09L4516.24 3140.89H4574.59L4752.91 2838.67L4544 2607.32C4547.87 2597.62 4552.02 2588.57 4555.52 2578.87ZM4242.29 2368.99C4218.08 2436.73 4179.75 2493.13 4132.15 2531.04C4084.54 2568.94 4029.8 2586.66 3974.85 2581.95C3919.89 2577.24 3867.19 2550.31 3823.41 2504.57C3779.62 2458.83 3746.73 2396.33 3728.88 2324.97C3711.02 2253.62 3709.02 2176.62 3723.12 2103.7C3737.21 2030.79 3766.78 1965.24 3808.07 1915.34C3849.37 1865.44 3900.53 1833.44 3955.1 1823.38C4009.68 1813.32 4065.2 1825.66 4114.65 1858.82C4180.96 1903.3 4231.66 1982.03 4255.59 2077.7C4279.53 2173.37 4274.74 2278.15 4242.29 2368.99Z" fill="#263238" stroke="#263238" stroke-linecap="round" stroke-linejoin="round"/>
<path d="M4298.93 2899.84L4516.05 3140.5L4694.38 2838.28L4485.47 2606.93C4489.15 2597.49 4493.3 2588.57 4496.8 2578.87C4533.88 2475.69 4555.37 2363.3 4559.95 2248.46L4825.32 2168.02L4763.86 1788.48L4510.2 1866.07C4473.35 1747.23 4417.32 1641.38 4346.32 1556.48L4462.62 1230.98L4207.92 1058.73L4096.24 1371.42C4004.15 1337.57 3907.61 1333.14 3814.07 1358.49L3701.64 1033.9L3445.14 1200.98L3555.03 1518.46C3479.82 1596.24 3418.49 1696.39 3375.66 1811.36L3114.73 1727.44L3049.88 2105.82L3307.22 2188.72C3305.76 2314.34 3324.35 2438.89 3361.69 2553.65L3144.56 2787.72L3320.06 3093.17L3533.79 2862.59C3602.52 2941.63 3683.09 2999.02 3769.8 3030.71L3768 3416.72L4051.78 3419.31L4053.48 3044.29C4141.91 3020.82 4225.62 2971.55 4298.93 2899.84ZM3683.89 2033.4C3708.1 1965.66 3746.42 1909.26 3794.03 1871.35C3841.63 1833.45 3896.37 1815.73 3951.33 1820.44C4006.28 1825.15 4058.99 1852.08 4102.77 1897.82C4146.55 1943.56 4179.45 2006.06 4197.3 2077.42C4215.15 2148.77 4217.16 2225.77 4203.06 2298.69C4188.96 2371.6 4159.4 2437.15 4118.1 2487.05C4076.81 2536.95 4025.64 2568.95 3971.07 2579.01C3916.5 2589.07 3860.98 2576.73 3811.52 2543.57C3745.26 2499.09 3694.6 2420.41 3670.67 2324.8C3646.74 2229.19 3651.49 2124.47 3683.89 2033.66V2033.4Z" fill="#92E3A9" stroke="#263238" stroke-linecap="round" stroke-linejoin="round"/>
<path d="M5141.19 3318.18C5141.19 3318.18 5065.67 3392.8 5060.86 3394.48C5056.04 3396.16 5021.68 3404.96 5018.09 3415.04C5015.78 3420.29 5014.27 3426.13 5013.67 3432.2C5013.07 3438.27 5013.38 3444.45 5014.6 3450.35C5018.37 3460.3 5255.8 3447.76 5255.8 3447.76C5258.85 3435.28 5259.63 3421.96 5258.06 3408.96C5256.23 3387.85 5255.28 3366.61 5255.23 3345.34L5141.19 3318.18Z" fill="white" stroke="#263238" stroke-linecap="round" stroke-linejoin="round"/>
<path d="M5258.54 3429.27L5013.75 3431.85C5012.53 3437.98 5012.83 3444.48 5014.6 3450.34C5018.37 3460.3 5255.8 3447.76 5255.8 3447.76C5257.29 3441.78 5258.21 3435.57 5258.54 3429.27Z" fill="white" stroke="#263238" stroke-linecap="round" stroke-linejoin="round"/>
<path d="M5736.12 3298.4L5721.77 3355.56L5667.02 3421.64C5667.02 3421.64 5663.43 3440 5669.57 3443.36C5675.71 3446.72 5780.97 3442.2 5780.97 3442.2C5789.23 3436.58 5797.02 3429.73 5804.19 3421.77C5810.23 3413.36 5862.25 3308.87 5860.83 3297.1C5859.41 3285.34 5827.51 3248.74 5827.51 3248.74L5736.12 3298.4Z" fill="white" stroke="#263238" stroke-linecap="round" stroke-linejoin="round"/>
<path d="M5804.19 3421.76C5810.23 3413.36 5862.25 3308.87 5860.83 3297.1C5858.49 3289.78 5855.01 3283.24 5850.63 3277.96C5831.75 3321.41 5796.07 3403.92 5787.95 3410.25C5779.83 3416.59 5697.7 3421.38 5666.64 3423.19C5665.98 3427.32 5664.28 3440.77 5669.38 3443.62C5674.48 3446.46 5780.78 3442.45 5780.78 3442.45C5789.12 3436.77 5796.97 3429.83 5804.19 3421.76Z" fill="white" stroke="#263238" stroke-linecap="round" stroke-linejoin="round"/>
<path d="M5338.4 2474.12C5334.6 2490.12 5331.45 2506.39 5328.96 2522.87C5328.96 2529.59 5330.28 2551.32 5330.28 2551.32C5330.28 2551.32 5172.63 2811.38 5163 2836.6C5153.37 2861.81 5149.69 3294.64 5149.69 3294.64C5149.69 3294.64 5134.96 3299.82 5135.06 3306.54C5134.67 3313.3 5133.88 3320 5132.7 3326.58C5148.43 3339.38 5164.87 3350.45 5181.88 3359.69C5200.76 3367.84 5249.29 3379.09 5249.29 3379.09C5252.9 3368.54 5254.93 3357.11 5255.23 3345.46C5255.23 3328.65 5251.27 3298.52 5251.27 3293.74C5251.27 3288.95 5299.32 2917.55 5299.32 2917.55L5453.48 2681.16C5453.48 2681.16 5521.07 2941.99 5534.57 2956.99C5548.07 2971.99 5717.62 3273.69 5717.62 3273.69C5717.62 3273.69 5705.44 3283.91 5711.58 3288.82C5718.94 3298.73 5725.29 3309.95 5730.46 3322.19C5730.46 3322.19 5779.45 3311.58 5798.9 3294.64C5811.33 3283.12 5821.38 3267.39 5828.07 3248.99C5821.6 3233.5 5814.54 3218.48 5806.93 3203.99C5800.79 3194.03 5792.1 3177.35 5792.1 3177.35L5649.37 2840.09C5649.37 2840.09 5614.25 2461.44 5604.24 2426.27C5594.24 2391.09 5559.59 2335.75 5559.59 2335.75L5338.4 2474.12Z" fill="#A1A1A1" stroke="#263238" stroke-linecap="round" stroke-linejoin="round"/>
<path d="M5331.32 2507.74L5575.26 2359.29L5559.21 2336.01L5337.18 2460.8L5331.32 2507.74Z" fill="#263238" stroke="#263238" stroke-linecap="round" stroke-linejoin="round"/>
<path d="M5385.04 2490.42L5391.36 2517.19C5391.36 2517.19 5379.18 2527.4 5381.92 2535.68C5387.31 2546.18 5393.66 2555.69 5400.8 2564" stroke="#263238" stroke-linecap="round" stroke-linejoin="round"/>
<path d="M5404.58 2478.52L5414.02 2508.52C5414.02 2508.52 5401.94 2521.45 5408.07 2533.74C5412.61 2542 5417.56 2549.82 5422.89 2557.15" stroke="#263238" stroke-linecap="round" stroke-linejoin="round"/>
<path d="M5410.15 2607.19L5401.56 2592.57" stroke="#263238" stroke-linecap="round" stroke-linejoin="round"/>
<path d="M5453.48 2680.9L5426.39 2634.86" stroke="#263238" stroke-linecap="round" stroke-linejoin="round"/>
<path d="M5728.1 3093.82L5748.68 3142.31" stroke="#263238" stroke-linecap="round" stroke-linejoin="round"/>
<path d="M5573.94 2543.69L5622.08 2833.36L5618.5 2856.9C5618.5 2856.9 5633.22 2860.13 5633.22 2865.18V2870.22L5714.32 3061.48" stroke="#263238" stroke-linecap="round" stroke-linejoin="round"/>
<path d="M5225.59 3201.92L5218.13 3282.1" stroke="#263238" stroke-linecap="round" stroke-linejoin="round"/>
<path d="M5411.75 2669.65L5260.14 2911.09C5260.14 2911.09 5235.6 2907.98 5239.28 2916.26C5242.68 2923.26 5246.4 2929.95 5250.42 2936.3L5228.14 3174.77" stroke="#263238" stroke-linecap="round" stroke-linejoin="round"/>
<path d="M5170.55 2059.27C5170.55 2059.27 5183.68 2224.41 5194.15 2242.12C5204.63 2259.84 5305.74 2390.71 5305.74 2390.71C5305.74 2390.71 5326.13 2472.57 5326.98 2478.52C5327.83 2484.47 5321.79 2494.68 5336.42 2491.45C5351.05 2488.22 5554.49 2358.9 5561.38 2349.2C5567.57 2339.57 5571.16 2327.35 5571.58 2314.54C5570.22 2304.9 5566.95 2295.95 5562.14 2288.68C5555.84 2280.92 5549.12 2273.83 5542.03 2267.47C5542.03 2267.47 5446.21 2048.53 5425.16 2021.76C5404.11 1994.99 5327.36 1903.95 5292.52 1894.9C5265.83 1889.2 5238.8 1887.08 5211.81 1888.57L5170.55 2059.27Z" fill="white" stroke="#263238" stroke-linecap="round" stroke-linejoin="round"/>
<path d="M4889.8 1871.11C4882.54 1855.99 4874.63 1841.48 4866.1 1827.66C4861.1 1822.23 4804.65 1778.78 4804.65 1778.78C4804.65 1778.78 4785.77 1784.21 4799.64 1797.79C4813.53 1814.59 4826.17 1833.21 4837.4 1853.39C4828.68 1849.65 4819.75 1846.92 4810.69 1845.25C4803.7 1845.25 4801.25 1866.97 4808.71 1869.69C4814.76 1871.95 4820.72 1874.67 4826.55 1877.84C4826.55 1877.84 4842.41 1913.14 4850.34 1918.57C4857.62 1922.4 4865.3 1924.66 4873.09 1925.3L5192.45 2106.21L5209.26 1981.29L4889.8 1871.11Z" fill="white" stroke="#263238" stroke-linecap="round" stroke-linejoin="round"/>
<path d="M5126.37 1827.92C5113.22 1804.68 5098.03 1783.75 5081.15 1765.59C5053.4 1735.84 4961.35 1778.52 4948.04 1886.24C4948.04 1886.24 4936.24 1937.97 4955.12 1965.64C4969.63 1985.74 4985.82 2003.41 5003.36 2018.27C5003.36 2018.27 5034.8 2067.93 5038.29 2065.48C5044.11 2057.02 5049.3 2047.8 5053.78 2037.93C5053.78 2037.93 5104.28 2075.43 5109.47 2069.48C5117.78 2053.93 5125.22 2037.54 5131.75 2020.47L5160.07 2045.17L5196.51 1892.58L5152.14 1879.64L5126.37 1827.92Z" fill="white" stroke="#263238" stroke-linecap="round" stroke-linejoin="round"/>
<path d="M5188.68 1880.81L5148.84 2061.85L5185.56 2098.32L5221.62 1881.58L5188.68 1880.81Z" fill="white" stroke="#263238" stroke-linecap="round" stroke-linejoin="round"/>
<path d="M5182.16 2189.88L5174.99 2521.06L5193.59 2570.59L5218.42 2511.23L5191.51 2169.96L5182.16 2189.88Z" fill="#92E3A9" stroke="#263238" stroke-linecap="round" stroke-linejoin="round"/>
<path d="M5274.87 1952.06C5263.93 1947.51 5252.48 1945.71 5241.07 1946.76C5202.08 1951.93 5147.24 2071.42 5143.74 2073.88C5140.25 2076.34 5067.09 2172.16 5067.09 2172.16L4864.97 2133.37L4808.33 2038.83C4799.2 2033.73 4790.44 2027.46 4782.18 2020.08C4776.04 2012.97 4774.15 1996.42 4766.41 2004.82C4758.67 2013.23 4754.42 2023.96 4756.97 2032.24C4760.56 2040.16 4764.98 2047.3 4770.09 2053.45L4775.38 2064.18C4775.38 2064.18 4713.64 2059.4 4709.3 2064.83C4704.96 2070.26 4703.26 2080.48 4706.56 2083.32C4709.87 2086.17 4744.98 2091.98 4757.63 2096.25C4757.63 2097.16 4692.87 2098.84 4691.55 2103.75C4690.23 2108.67 4689.57 2117.59 4692.21 2119.4C4694.86 2121.21 4750.65 2134.14 4750.65 2134.14C4735.68 2136.71 4720.85 2140.68 4706.28 2146.04C4705.73 2147.01 4705.34 2148.11 4705.11 2149.3C4704.89 2150.48 4704.84 2151.71 4704.97 2152.92C4705.1 2154.13 4705.41 2155.29 4705.88 2156.33C4706.35 2157.37 4706.97 2158.27 4707.69 2158.97C4724.89 2160.33 4742.13 2160.33 4759.33 2158.97C4759.33 2158.97 4724.4 2169.06 4727.14 2174.62C4729.88 2180.18 4731.2 2181.99 4733.84 2182.9C4736.49 2183.8 4835.23 2203.07 4835.23 2203.07V2201.91L4847.79 2206.17C4847.79 2206.17 5085.68 2315.45 5095.31 2317.77C5107.12 2318.58 5118.91 2316.03 5129.96 2310.27C5136 2306.65 5238.62 2185.48 5238.62 2185.48L5239.56 2178.89" fill="white"/>
<path d="M5274.87 1952.06C5263.93 1947.51 5252.48 1945.71 5241.07 1946.76C5202.08 1951.93 5147.24 2071.42 5143.74 2073.88C5140.25 2076.34 5067.09 2172.16 5067.09 2172.16L4864.97 2133.37L4808.33 2038.83C4799.2 2033.73 4790.44 2027.46 4782.18 2020.08C4776.04 2012.97 4774.15 1996.42 4766.41 2004.82C4758.67 2013.23 4754.42 2023.96 4756.97 2032.24C4760.56 2040.16 4764.98 2047.3 4770.09 2053.45L4775.38 2064.18C4775.38 2064.18 4713.64 2059.4 4709.3 2064.83C4704.96 2070.26 4703.26 2080.48 4706.56 2083.32C4709.87 2086.17 4744.98 2091.98 4757.63 2096.25C4757.63 2097.16 4692.87 2098.84 4691.55 2103.75C4690.23 2108.67 4689.57 2117.59 4692.21 2119.4C4694.86 2121.21 4750.65 2134.14 4750.65 2134.14C4735.68 2136.71 4720.85 2140.68 4706.28 2146.04C4705.73 2147.01 4705.34 2148.11 4705.11 2149.3C4704.89 2150.48 4704.84 2151.71 4704.97 2152.92C4705.1 2154.13 4705.41 2155.29 4705.88 2156.33C4706.35 2157.37 4706.97 2158.27 4707.69 2158.97C4724.89 2160.33 4742.13 2160.33 4759.33 2158.97C4759.33 2158.97 4724.4 2169.06 4727.14 2174.62C4729.88 2180.18 4731.2 2181.99 4733.84 2182.9C4736.49 2183.8 4835.23 2203.07 4835.23 2203.07V2201.91L4847.79 2206.17C4847.79 2206.17 5085.68 2315.45 5095.31 2317.77C5107.12 2318.58 5118.91 2316.03 5129.96 2310.27C5136 2306.65 5238.62 2185.48 5238.62 2185.48L5239.56 2178.89" stroke="#263238" stroke-linecap="round" stroke-linejoin="round"/>
<path d="M5247.02 2167.51L5306.21 2112.16" stroke="#263238" stroke-linecap="round" stroke-linejoin="round"/>
<path d="M5254.48 2171.39L5312.44 2139.83" stroke="#263238" stroke-linecap="round" stroke-linejoin="round"/>
<path d="M5004.78 1904.99C5004.78 1904.99 5010.35 1942.88 5018 1943.14C5025.64 1943.4 5050.09 1924.26 5050.09 1924.26L5069.54 1934.48C5069.54 1934.48 5079.74 1926.85 5068.6 1912.23C5057.46 1897.62 5051.13 1899.3 5052.17 1886.37C5053.21 1873.44 5075.21 1832.44 5089.93 1856.63C5099.48 1874.64 5105.93 1895.37 5108.81 1917.28L5151.77 1879.78C5151.77 1879.78 5117.78 1786.02 5102.2 1769.21C5086.63 1752.4 5045.56 1745.8 5016.58 1762.61C4987.6 1779.42 4960.5 1792.87 4946.82 1847.32C4933.13 1901.76 4932.09 1950.77 4940.96 1952.71C4949.84 1954.65 4964.28 1884.69 4968.06 1878.09C4971.83 1871.5 5004.78 1904.99 5004.78 1904.99Z" fill="#263238" stroke="#263238" stroke-linecap="round" stroke-linejoin="round"/>
<path d="M5024.98 1985.17C5029.7 1990.21 5031.97 1996.81 5030.18 2000.04C5028.38 2003.27 5023.1 2001.72 5018.37 1996.68C5013.65 1991.63 5011.48 1985.17 5013.28 1981.94C5015.07 1978.7 5020.36 1980.25 5024.98 1985.17Z" fill="#263238"/>
<path d="M4994.68 1987.24C4994.68 1987.24 4990.43 1964.09 5006.38 1959.95" stroke="#263238" stroke-linecap="round" stroke-linejoin="round"/>
<path d="M5073.88 2032.24C5075.84 2030.69 5077.53 2028.58 5078.84 2026.07C5080.16 2023.56 5081.07 2020.69 5081.51 2017.66C5081.96 2014.63 5081.93 2011.5 5081.43 2008.49C5080.93 2005.47 5079.97 2002.64 5078.6 2000.17" stroke="#263238" stroke-linecap="round" stroke-linejoin="round"/>
<path d="M5057.83 2158.72L5121.65 2325.67L5165.36 2289.97L5095.22 2137.64L5057.83 2158.72Z" fill="white" stroke="#263238" stroke-linecap="round" stroke-linejoin="round"/>
<path d="M5277.42 2290.36C5334.41 2324.83 5395.9 2343.13 5458.2 2344.15" stroke="#263238" stroke-linecap="round" stroke-linejoin="round"/>
<path d="M5339.25 2358.25C5339.25 2358.25 5416.76 2390.84 5456.03 2371.18" stroke="#263238" stroke-linecap="round" stroke-linejoin="round"/>
<path d="M6211.63 5100.84L6183.22 5139.76L5049.72 3921.58L5078.13 3882.79L6211.63 5100.84Z" fill="white" stroke="#263238" stroke-linecap="round" stroke-linejoin="round"/>
<path d="M5049.72 5100.84L5078.13 5139.76L6211.63 3921.58L6183.22 3882.79L5049.72 5100.84Z" fill="white" stroke="#263238" stroke-linecap="round" stroke-linejoin="round"/>
<path d="M6235.61 3523.8H6195.49V5943.6H6235.61V3523.8Z" fill="white" stroke="#263238" stroke-linecap="round" stroke-linejoin="round"/>
<path d="M5094.27 3523.8H5054.15V5943.6H5094.27V3523.8Z" fill="white" stroke="#263238" stroke-linecap="round" stroke-linejoin="round"/>
<path d="M5072.47 3865.59V3920.55H6194.83V3865.59H5072.47Z" fill="white" stroke="#263238" stroke-linecap="round" stroke-linejoin="round"/>
<path d="M5072.47 5106.91V5161.88H6194.83V5106.91H5072.47Z" fill="white" stroke="#263238" stroke-linecap="round" stroke-linejoin="round"/>
<path d="M6035.48 5100.84L6007.06 5139.76L4873.65 3921.58L4902.07 3882.79L6035.48 5100.84Z" fill="white" stroke="#263238" stroke-linecap="round" stroke-linejoin="round"/>
<path d="M4873.65 5100.84L4902.07 5139.76L6035.48 3921.58L6007.06 3882.79L4873.65 5100.84Z" fill="white" stroke="#263238" stroke-linecap="round" stroke-linejoin="round"/>
<path d="M4896.41 3865.59V3920.55H6018.77V3865.59H4896.41Z" fill="white" stroke="#263238" stroke-linecap="round" stroke-linejoin="round"/>
<path d="M4896.31 5107.04V5162H6018.67V5107.04H4896.31Z" fill="white" stroke="#263238" stroke-linecap="round" stroke-linejoin="round"/>
<path d="M4899.24 3523.8H4859.12V5943.6H4899.24V3523.8Z" fill="white" stroke="#263238" stroke-linecap="round" stroke-linejoin="round"/>
<path d="M6057.75 3523.8H6017.63V5943.6H6057.75V3523.8Z" fill="white" stroke="#263238" stroke-linecap="round" stroke-linejoin="round"/>
<path d="M6303.58 3455.13H4790.11V3560.14H6303.58V3455.13Z" fill="#263238" stroke="#263238" stroke-linecap="round" stroke-linejoin="round"/>
<path d="M1431.52 4394.5L1624.58 4505.72L1827.92 4455.41L1831.79 4503L1630.43 4608.91L1410.28 4476.62L1431.52 4394.5Z" fill="white" stroke="#263238" stroke-linecap="round" stroke-linejoin="round"/>
<path d="M1599.65 4111.69C1599.65 4111.69 1639.59 4135.35 1636.28 4164.84C1632.98 4194.32 1614.76 4201.82 1606.07 4217.99C1597.39 4234.15 1598.52 4225.49 1598.52 4225.49L1590.97 4133.8C1590.97 4133.8 1589.93 4098.37 1599.65 4111.69Z" fill="#263238" stroke="#263238" stroke-linecap="round" stroke-linejoin="round"/>
<path d="M1436.81 4043.66C1429.3 4032.62 1420.04 4024.08 1409.75 4018.7C1399.46 4013.32 1388.4 4011.24 1377.43 4012.63C1337.59 4015.6 1320.79 4048.19 1320.79 4086.6C1320.79 4125 1325.13 4113.11 1265.75 4136.77C1206.37 4160.44 1206.46 4191.47 1205.33 4207.64C1204.2 4223.8 1190.23 4223.93 1171.91 4251.99C1153.6 4280.06 1152.47 4366.57 1219.11 4399.16C1285.76 4431.75 1341.37 4379.11 1353.26 4311.09C1365.16 4243.07 1353.26 4225.48 1368.08 4206.22C1382.9 4186.95 1368.08 4157.46 1374.5 4122.03C1380.92 4086.6 1416.61 4071.72 1428.41 4068.88C1440.21 4066.03 1438.98 4056.98 1436.81 4043.66Z" fill="#263238" stroke="#263238" stroke-linecap="round" stroke-linejoin="round"/>
<path d="M1399.9 4279.93C1399.9 4279.93 1282.55 4369.16 1253.76 4422.18C1224.97 4475.2 1211.28 4681.59 1211.28 4681.59L1352.88 4805.86C1352.88 4805.86 1448.7 4671.76 1456.73 4632.32C1464.75 4592.88 1446.53 4372.26 1446.53 4372.26L1399.9 4279.93Z" fill="white" stroke="#263238" stroke-linecap="round" stroke-linejoin="round"/>
<path d="M1573.69 4086.08C1508.74 4011.08 1413.21 4063.32 1405.56 4113.5C1401 4144.07 1399.19 4175.3 1400.18 4206.48L1405.56 4272.43L1399.9 4279.93L1375.64 4295.58L1437.94 4458.65L1474.57 4339.16C1474.57 4339.16 1519.13 4374.59 1526.3 4374.59C1533.48 4374.59 1573.5 4305.27 1573.5 4305.27C1573.5 4305.27 1586.06 4317.3 1590.03 4316.01C1593.99 4314.71 1594.75 4245.01 1594.75 4245.01C1601.49 4216.49 1605.74 4186.97 1607.4 4157.08C1608.81 4116.47 1573.69 4086.08 1573.69 4086.08Z" fill="white" stroke="#263238" stroke-linecap="round" stroke-linejoin="round"/>
<path d="M1560.57 4238.94C1559.25 4247.34 1560.57 4254.97 1563.78 4255.75C1566.99 4256.52 1570.39 4250.57 1571.71 4242.17C1573.03 4233.76 1571.71 4226.13 1568.41 4225.36C1565.1 4224.58 1561.8 4230.53 1560.57 4238.94Z" fill="#263238"/>
<path d="M1586.25 4212.16C1585.33 4209.25 1583.99 4206.64 1582.29 4204.48C1580.6 4202.32 1578.6 4200.66 1576.42 4199.62C1574.24 4198.57 1571.92 4198.16 1569.61 4198.4C1567.31 4198.65 1565.06 4199.55 1563.03 4201.04" stroke="#263238" stroke-linecap="round" stroke-linejoin="round"/>
<path d="M1544.62 4322.99C1542.25 4323.56 1539.82 4323.44 1537.49 4322.64C1535.15 4321.83 1532.97 4320.36 1531.08 4318.32C1529.19 4316.29 1527.64 4313.72 1526.52 4310.81C1525.41 4307.89 1524.75 4304.68 1524.6 4301.39" stroke="#263238" stroke-linecap="round" stroke-linejoin="round"/>
<path d="M1610.42 4142.72C1610.42 4142.72 1634.11 4114.65 1582.1 4070.3C1530.08 4025.94 1465.6 4018.57 1428.97 4052.58C1414.01 4066.57 1402.63 4086.63 1396.43 4109.95C1390.23 4133.26 1389.53 4158.65 1394.42 4182.55C1401.97 4222.51 1393.38 4249.02 1408.49 4262.34C1423.59 4275.66 1465.6 4247.59 1470.98 4220.95C1476.36 4194.31 1477.5 4181.12 1493.64 4184.1C1509.78 4187.07 1515.35 4221.08 1515.35 4221.08C1515.35 4221.08 1553.11 4178.15 1575.58 4172.2C1589.43 4168.53 1601.82 4158.04 1610.42 4142.72Z" fill="#263238" stroke="#263238" stroke-linecap="round" stroke-linejoin="round"/>
<path d="M1211.28 4681.07C1211.28 4681.07 1069.67 4831.6 1056.84 4922.12C1044 5012.65 989.243 5436.04 989.243 5436.04C989.243 5436.04 881.057 5804.72 881.057 5815.07C881.057 5825.41 926.465 5838.35 926.465 5838.35C926.465 5838.35 1088.93 5514.27 1094.6 5503.93C1100.26 5493.58 1200.61 5146.49 1200.61 5146.49L1298.22 5442.63L1373.75 5850.76L1422.93 5837.83L1427.93 5372.28L1331.36 4884.62L1352.6 4805.35L1211.28 4681.07Z" fill="#263238" stroke="#263238" stroke-linecap="round" stroke-linejoin="round"/>
<path d="M944.306 5812.99C944.306 5812.99 963.187 5885.41 968.19 5891.62C973.194 5897.83 999.815 5926.79 998.305 5937.14C996.794 5947.48 925.897 5943.35 909.282 5941.28C892.668 5939.21 856.417 5883.34 851.885 5866.79C847.354 5850.24 874.542 5796.44 888.136 5784.03C901.73 5771.61 944.306 5812.99 944.306 5812.99Z" fill="white" stroke="#263238" stroke-linecap="round" stroke-linejoin="round"/>
<path d="M1425.76 5815.07L1464.75 5863.43C1464.75 5863.43 1531.68 5898.99 1531.68 5906.75C1531.68 5914.51 1518.47 5927.96 1478.82 5935.72C1440.92 5941.38 1402.59 5938.01 1365.53 5925.76C1350.43 5917.87 1374.98 5850.63 1374.98 5850.63L1425.76 5815.07Z" fill="white" stroke="#263238" stroke-linecap="round" stroke-linejoin="round"/>
<path d="M1313.61 4498.6C1318.43 4527.31 1323.05 4521.62 1341.08 4537.4C1377.24 4569.47 1599.84 4669.05 1599.84 4669.05L1828.68 4538.82L1874.18 4525.89L1889.38 4530.68C1892.27 4531.16 1895.2 4530.85 1898.01 4529.76C1900.81 4528.68 1903.43 4526.83 1905.71 4524.34C1910.33 4519.55 1885.88 4505.07 1885.88 4505.07C1898.73 4506.03 1911.62 4505.51 1924.4 4503.52C1933.84 4500.29 1934.88 4487.61 1930.16 4487.61C1925.44 4487.61 1887.02 4481.15 1887.02 4481.15C1887.02 4481.15 1936.01 4462.01 1938.37 4457.22C1940.73 4452.44 1933.65 4441.19 1926.67 4441.19C1919.68 4441.19 1875.41 4450.76 1875.41 4450.76L1889.38 4436.4C1902.03 4431.69 1914.19 4424.73 1925.53 4415.71C1926.59 4414.84 1927.44 4413.58 1928 4412.08C1928.55 4410.57 1928.78 4408.88 1928.66 4407.2C1928.54 4405.53 1928.08 4403.93 1927.33 4402.6C1926.57 4401.26 1925.56 4400.25 1924.4 4399.68L1896.08 4404.46L1852.94 4426.83L1857.56 4410.93C1864.15 4403.64 1868.68 4393.45 1870.4 4382.09C1871.63 4366.18 1858.79 4382.09 1858.79 4382.09L1820.27 4431.62L1809.8 4483.35L1605.13 4560.03L1397.44 4389.07L1390.46 4385.84" fill="white"/>
<path d="M1313.61 4498.6C1318.43 4527.31 1323.05 4521.62 1341.08 4537.4C1377.24 4569.47 1599.84 4669.05 1599.84 4669.05L1828.68 4538.82L1874.18 4525.89L1889.38 4530.68C1892.27 4531.16 1895.2 4530.85 1898.01 4529.76C1900.81 4528.68 1903.43 4526.83 1905.71 4524.34C1910.33 4519.55 1885.88 4505.07 1885.88 4505.07C1898.73 4506.03 1911.62 4505.51 1924.4 4503.52C1933.84 4500.29 1934.88 4487.61 1930.16 4487.61C1925.44 4487.61 1887.02 4481.15 1887.02 4481.15C1887.02 4481.15 1936.01 4462.01 1938.37 4457.22C1940.73 4452.44 1933.65 4441.19 1926.67 4441.19C1919.68 4441.19 1875.41 4450.76 1875.41 4450.76L1889.38 4436.4C1902.03 4431.69 1914.19 4424.73 1925.53 4415.71C1926.59 4414.84 1927.44 4413.58 1928 4412.08C1928.55 4410.57 1928.78 4408.88 1928.66 4407.2C1928.54 4405.53 1928.08 4403.93 1927.33 4402.6C1926.57 4401.26 1925.56 4400.25 1924.4 4399.68L1896.08 4404.46L1852.94 4426.83L1857.56 4410.93C1864.15 4403.64 1868.68 4393.45 1870.4 4382.09C1871.63 4366.18 1858.79 4382.09 1858.79 4382.09L1820.27 4431.62L1809.8 4483.35L1605.13 4560.03L1397.44 4389.07L1390.46 4385.84" stroke="#263238" stroke-linecap="round" stroke-linejoin="round"/>
<path d="M1298.32 4535.98L1371.86 4598.31L1457.67 4433.95C1457.67 4433.95 1382.15 4364.63 1374.13 4363.08C1366.1 4361.53 1337.97 4353.51 1321.64 4388.94" fill="white"/>
<path d="M1298.32 4535.98L1371.86 4598.31L1457.67 4433.95C1457.67 4433.95 1382.15 4364.63 1374.13 4363.08C1366.1 4361.53 1337.97 4353.51 1321.64 4388.94" stroke="#263238" stroke-linecap="round" stroke-linejoin="round"/>
</svg>
