<svg width="5955" height="5945" viewBox="0 0 5955 5945" fill="none" xmlns="http://www.w3.org/2000/svg">
<path d="M601.5 5944.11H5777.16" stroke="#263238" stroke-miterlimit="10"/>
<path d="M1404.59 3978.22L1609.99 5941.52" stroke="#263238" stroke-width="2" stroke-miterlimit="10"/>
<path d="M1573.51 5538.74L1482.2 5442.25" stroke="#263238" stroke-width="2" stroke-miterlimit="10"/>
<path d="M1510.01 5471.23C1509.84 5456.45 1506.51 5441.87 1500.25 5428.49C1493.98 5415.1 1484.91 5403.21 1473.66 5393.62C1450.25 5372.67 1326.86 5320.8 1315.22 5364.26C1302.41 5411.6 1428.65 5504.47 1510.01 5471.23Z" fill="#92E3A9" stroke="#263238" stroke-miterlimit="10"/>
<path d="M1510.01 5471.23L1392.56 5398.02" stroke="#263238" stroke-width="0.5" stroke-miterlimit="10"/>
<path d="M1596.41 5758.24L1505.22 5661.75" stroke="#263238" stroke-width="2" stroke-miterlimit="10"/>
<path d="M1532.9 5690.72C1532.74 5675.94 1529.41 5661.37 1523.14 5647.98C1516.87 5634.59 1507.8 5622.7 1496.55 5613.12C1473.14 5592.16 1349.75 5540.3 1338.11 5583.75C1325.3 5631.09 1451.54 5723.83 1532.9 5690.72Z" fill="#92E3A9" stroke="#263238" stroke-miterlimit="10"/>
<path d="M1532.9 5690.72L1415.46 5617.52" stroke="#263238" stroke-width="0.5" stroke-miterlimit="10"/>
<path d="M1517.64 5003.13L1426.32 4906.77" stroke="#263238" stroke-width="2" stroke-miterlimit="10"/>
<path d="M1454.13 4935.62C1453.97 4920.84 1450.64 4906.26 1444.37 4892.88C1438.1 4879.49 1429.03 4867.6 1417.78 4858.01C1394.37 4837.19 1270.98 4785.19 1259.34 4828.65C1246.53 4876.12 1372.77 4968.86 1454.13 4935.62Z" fill="#92E3A9" stroke="#263238" stroke-miterlimit="10"/>
<path d="M1454.13 4935.62L1336.69 4862.54" stroke="#263238" stroke-width="0.5" stroke-miterlimit="10"/>
<path d="M1540.53 5222.63L1449.21 5126.27" stroke="#263238" stroke-width="2" stroke-miterlimit="10"/>
<path d="M1477.02 5155.11C1476.86 5140.33 1473.53 5125.76 1467.26 5112.37C1460.99 5098.98 1451.93 5087.1 1440.68 5077.51C1417.27 5056.55 1293.87 5004.69 1282.23 5048.15C1269.43 5095.48 1395.93 5188.35 1477.02 5155.11Z" fill="#92E3A9" stroke="#263238" stroke-miterlimit="10"/>
<path d="M1477.02 5155.11L1359.58 5081.91" stroke="#263238" stroke-width="0.5" stroke-miterlimit="10"/>
<path d="M1480.52 4646.67L1389.2 4550.18" stroke="#263238" stroke-width="2" stroke-miterlimit="10"/>
<path d="M1416.88 4579.15C1416.72 4564.37 1413.39 4549.79 1407.12 4536.4C1400.85 4523.02 1391.78 4511.13 1380.53 4501.54C1357.12 4480.59 1233.73 4428.72 1222.09 4472.18C1209.41 4519.52 1335.65 4612.39 1416.88 4579.15Z" fill="#92E3A9" stroke="#263238" stroke-miterlimit="10"/>
<path d="M1416.88 4579.15L1299.44 4505.94" stroke="#263238" stroke-width="0.5" stroke-miterlimit="10"/>
<path d="M1443.13 4288.65L1351.82 4192.16" stroke="#263238" stroke-width="2" stroke-miterlimit="10"/>
<path d="M1379.5 4220.61C1379.34 4205.83 1376.01 4191.26 1369.74 4177.87C1363.47 4164.48 1354.4 4152.6 1343.15 4143.01C1319.74 4122.05 1196.48 4070.19 1184.71 4113.65C1172.03 4161.5 1298.27 4254.24 1379.5 4220.61Z" fill="#92E3A9" stroke="#263238" stroke-miterlimit="10"/>
<path d="M1379.5 4221L1262.05 4147.92" stroke="#263238" stroke-width="0.5" stroke-miterlimit="10"/>
<path d="M1558.25 5408.89L1627.58 5295.71" stroke="#263238" stroke-width="2" stroke-miterlimit="10"/>
<path d="M1606.5 5329.73C1603.62 5315.25 1603.88 5300.33 1607.25 5285.97C1610.62 5271.6 1617.02 5258.12 1626.03 5246.43C1644.65 5220.56 1754.59 5144.9 1775.03 5184.99C1796.89 5228.58 1693.42 5345.9 1606.5 5329.73Z" fill="#92E3A9" stroke="#263238" stroke-miterlimit="10"/>
<path d="M1606.5 5329.72L1712.17 5228.58" stroke="#263238" stroke-width="0.5" stroke-miterlimit="10"/>
<path d="M1497.98 4831.37L1567.3 4718.19" stroke="#263238" stroke-width="2" stroke-miterlimit="10"/>
<path d="M1546.22 4752.08C1543.37 4737.63 1543.64 4722.73 1547 4708.39C1550.37 4694.04 1556.76 4680.59 1565.75 4668.91C1584.38 4643.04 1694.32 4567.25 1714.76 4607.35C1737 4650.93 1632.62 4767.86 1546.22 4752.08Z" fill="#92E3A9" stroke="#263238" stroke-miterlimit="10"/>
<path d="M1546.22 4752.08L1651.9 4651.06" stroke="#263238" stroke-width="0.5" stroke-miterlimit="10"/>
<path d="M1471.46 4577.47L1540.92 4464.29" stroke="#263238" stroke-width="2" stroke-miterlimit="10"/>
<path d="M1519.71 4498.31C1516.84 4483.83 1517.09 4468.91 1520.46 4454.55C1523.83 4440.18 1530.23 4426.7 1539.24 4415.01C1557.86 4389.79 1667.81 4313.48 1688.24 4353.57C1710.49 4397.16 1606.11 4514.09 1519.71 4498.31Z" fill="#92E3A9" stroke="#263238" stroke-miterlimit="10"/>
<path d="M1519.71 4498.31L1625.38 4397.29" stroke="#263238" stroke-width="0.5" stroke-miterlimit="10"/>
<path d="M1432.66 4205.48L1501.99 4092.3" stroke="#263238" stroke-width="2" stroke-miterlimit="10"/>
<path d="M1480.9 4126.19C1478.03 4111.72 1478.29 4096.8 1481.66 4082.43C1485.03 4068.06 1491.43 4054.58 1500.44 4042.89C1519.06 4017.67 1629 3941.36 1649.44 3981.46C1671.69 4025.05 1567.31 4141.97 1480.9 4126.19Z" fill="#92E3A9" stroke="#263238" stroke-miterlimit="10"/>
<path d="M1480.9 4126.19L1586.58 4025.17" stroke="#263238" stroke-width="0.5" stroke-miterlimit="10"/>
<path d="M1402.91 3967.49C1400.06 3953.03 1400.32 3938.14 1403.69 3923.79C1407.06 3909.45 1413.45 3895.99 1422.44 3884.32C1441.07 3858.45 1551.01 3782.66 1571.44 3822.75C1593.69 3866.34 1489.31 3983.27 1402.91 3967.49Z" fill="#92E3A9" stroke="#263238" stroke-miterlimit="10"/>
<path d="M1402.91 3967.49L1508.71 3866.47" stroke="#263238" stroke-width="0.5" stroke-miterlimit="10"/>
<path d="M1408.86 3971.88C1394.15 3973.22 1379.33 3971.4 1365.39 3966.54C1351.44 3961.67 1338.7 3953.88 1328.02 3943.69C1304.74 3922.6 1240.46 3805.16 1282.49 3789.12C1328.41 3771.53 1433.69 3887.68 1408.86 3971.88Z" fill="#92E3A9" stroke="#263238" stroke-miterlimit="10"/>
<path d="M1409.12 3971.88L1319.61 3856.12" stroke="#263238" stroke-width="0.5" stroke-miterlimit="10"/>
<path d="M1935.8 4244.02L1765.98 5941.52" stroke="#263238" stroke-width="2" stroke-miterlimit="10"/>
<path d="M1779.81 5805.84L1710.36 5692.66" stroke="#263238" stroke-width="2" stroke-miterlimit="10"/>
<path d="M1732.22 5726.68C1735.07 5712.2 1734.79 5697.27 1731.4 5682.9C1728.01 5668.54 1721.59 5655.06 1712.56 5643.38C1693.93 5618.16 1583.99 5541.98 1563.55 5582.08C1540.66 5625.66 1645.17 5742.46 1732.22 5726.68Z" fill="#92E3A9" stroke="#263238" stroke-miterlimit="10"/>
<path d="M1731.57 5726.68L1631.72 5630.84" stroke="#263238" stroke-width="0.5" stroke-miterlimit="10"/>
<path d="M1835.43 5270.23L1765.98 5157.05" stroke="#263238" stroke-width="2" stroke-miterlimit="10"/>
<path d="M1787.06 5190.68C1789.93 5176.21 1789.67 5161.29 1786.3 5146.92C1782.94 5132.55 1776.53 5119.07 1767.53 5107.38C1748.9 5082.16 1638.83 5005.98 1618.52 5046.08C1596.28 5090.05 1700.66 5206.85 1787.06 5190.68Z" fill="#92E3A9" stroke="#263238" stroke-miterlimit="10"/>
<path d="M1787.06 5191.07L1687.34 5095.36" stroke="#263238" stroke-width="0.5" stroke-miterlimit="10"/>
<path d="M1812.67 5489.72L1743.08 5376.55" stroke="#263238" stroke-width="2" stroke-miterlimit="10"/>
<path d="M1764.29 5410.56C1767.17 5396.09 1766.91 5381.17 1763.54 5366.8C1760.17 5352.44 1753.77 5338.96 1744.76 5327.27C1726.14 5302.05 1616.07 5225.86 1595.63 5265.96C1573.51 5309.55 1677.89 5426.34 1764.29 5410.56Z" fill="#92E3A9" stroke="#263238" stroke-miterlimit="10"/>
<path d="M1764.29 5410.57L1664.44 5314.85" stroke="#263238" stroke-width="0.5" stroke-miterlimit="10"/>
<path d="M1872.43 4913.76L1802.97 4800.58" stroke="#263238" stroke-width="2" stroke-miterlimit="10"/>
<path d="M1824.05 4834.6C1826.92 4820.13 1826.67 4805.21 1823.3 4790.84C1819.93 4776.47 1813.53 4762.99 1804.52 4751.31C1785.89 4725.44 1675.18 4649.77 1655.52 4689.87C1633.27 4733.46 1737.65 4850.25 1824.05 4834.6Z" fill="#92E3A9" stroke="#263238" stroke-miterlimit="10"/>
<path d="M1824.05 4834.6L1724.33 4738.76" stroke="#263238" stroke-width="0.5" stroke-miterlimit="10"/>
<path d="M1909.55 4555.61L1840.09 4442.43" stroke="#263238" stroke-width="2" stroke-miterlimit="10"/>
<path d="M1861.56 4476.45C1864.41 4461.97 1864.14 4447.04 1860.75 4432.67C1857.35 4418.31 1850.93 4404.83 1841.9 4393.15C1823.27 4367.93 1713.33 4291.75 1692.9 4331.85C1670.39 4375.82 1774.9 4492.23 1861.56 4476.45Z" fill="#92E3A9" stroke="#263238" stroke-miterlimit="10"/>
<path d="M1861.3 4476.45L1761.45 4380.74" stroke="#263238" stroke-width="0.5" stroke-miterlimit="10"/>
<path d="M1791.59 5675.59L1882.77 5579.1" stroke="#263238" stroke-width="2" stroke-miterlimit="10"/>
<path d="M1855.09 5608.07C1855.24 5593.3 1858.55 5578.73 1864.8 5565.35C1871.04 5551.96 1880.08 5540.07 1891.31 5530.47C1914.72 5509.51 2038.11 5457.52 2049.88 5500.98C2062.56 5548.32 1936.45 5641.18 1855.09 5608.07Z" fill="#92E3A9" stroke="#263238" stroke-miterlimit="10"/>
<path d="M1855.09 5608.07L1979.39 5530.98" stroke="#263238" stroke-width="0.5" stroke-miterlimit="10"/>
<path d="M1851.47 5098.07L1942.79 5001.58" stroke="#263238" stroke-width="2" stroke-miterlimit="10"/>
<path d="M1914.98 5030.43C1915.14 5015.64 1918.47 5001.07 1924.74 4987.68C1931.01 4974.3 1940.07 4962.41 1951.32 4952.82C1974.73 4931.87 2098 4880 2109.77 4923.33C2122.57 4970.8 1996.34 5063.67 1914.98 5030.43Z" fill="#92E3A9" stroke="#263238" stroke-miterlimit="10"/>
<path d="M1914.98 5030.42L2039.28 4953.34" stroke="#263238" stroke-width="0.5" stroke-miterlimit="10"/>
<path d="M1877.86 4844.17L1969.04 4747.68" stroke="#263238" stroke-width="2" stroke-miterlimit="10"/>
<path d="M1941.37 4776.78C1941.51 4762.01 1944.82 4747.44 1951.07 4734.06C1957.31 4720.67 1966.36 4708.78 1977.58 4699.18C2000.99 4678.22 2124.39 4626.23 2136.16 4669.69C2148.83 4716.9 2022.72 4809.77 1941.37 4776.78Z" fill="#92E3A9" stroke="#263238" stroke-miterlimit="10"/>
<path d="M1941.37 4776.65L2065.66 4699.57" stroke="#263238" stroke-width="0.5" stroke-miterlimit="10"/>
<path d="M1916.4 4472.05L2007.72 4375.56" stroke="#263238" stroke-width="2" stroke-miterlimit="10"/>
<path d="M1979.91 4404.54C1980.07 4389.76 1983.4 4375.18 1989.67 4361.79C1995.94 4348.41 2005 4336.52 2016.25 4326.93C2039.66 4305.98 2162.93 4253.98 2174.7 4297.44C2187.5 4344.78 2061.26 4437.65 1979.91 4404.54Z" fill="#92E3A9" stroke="#263238" stroke-miterlimit="10"/>
<path d="M1979.91 4404.53L2104.21 4327.45" stroke="#263238" stroke-width="0.5" stroke-miterlimit="10"/>
<path d="M1936.32 4233.55C1936.48 4218.76 1939.81 4204.19 1946.08 4190.8C1952.35 4177.42 1961.42 4165.53 1972.67 4155.94C1996.08 4134.99 2119.34 4083.12 2131.11 4126.58C2143.92 4173.53 2017.68 4266.4 1936.32 4233.55Z" fill="#92E3A9" stroke="#263238" stroke-miterlimit="10"/>
<path d="M1936.32 4233.15L2060.62 4156.07" stroke="#263238" stroke-width="0.5" stroke-miterlimit="10"/>
<path d="M1941.49 4238.72C1926.84 4236.99 1912.73 4232.15 1900.1 4224.52C1887.48 4216.89 1876.63 4206.65 1868.29 4194.48C1849.79 4168.61 1811.12 4040.95 1855.35 4033.84C1903.86 4026.6 1983.01 4161.37 1941.49 4238.72Z" fill="#92E3A9" stroke="#263238" stroke-miterlimit="10"/>
<path d="M1941.49 4238.72L1877.73 4107.05" stroke="#263238" stroke-width="0.5" stroke-miterlimit="10"/>
<path d="M1706.35 3458.13L1693.8 5944.49" stroke="#263238" stroke-width="2" stroke-miterlimit="10"/>
<path d="M1708.29 5531.76L1627.45 5426.34" stroke="#263238" stroke-width="2" stroke-miterlimit="10"/>
<path d="M1652.02 5457.9C1653.36 5443.23 1651.55 5428.44 1646.71 5414.52C1641.87 5400.6 1634.11 5387.87 1623.96 5377.19C1602.87 5353.91 1485.56 5289.5 1469.39 5331.41C1451.8 5377.19 1567.69 5482.48 1652.02 5457.9Z" fill="#92E3A9" stroke="#263238" stroke-miterlimit="10"/>
<path d="M1652.02 5457.9L1542.86 5372.93" stroke="#263238" stroke-width="0.5" stroke-miterlimit="10"/>
<path d="M1708.29 5073.11L1627.45 4967.7" stroke="#263238" stroke-width="2" stroke-miterlimit="10"/>
<path d="M1652.02 4999.26C1653.36 4984.58 1651.55 4969.79 1646.71 4955.87C1641.87 4941.95 1634.11 4929.22 1623.96 4918.55C1602.87 4895.26 1485.56 4830.85 1469.39 4872.89C1451.8 4919.06 1567.69 5023.83 1652.02 4999.26Z" fill="#92E3A9" stroke="#263238" stroke-miterlimit="10"/>
<path d="M1652.02 4999.26L1542.86 4914.28" stroke="#263238" stroke-width="0.5" stroke-miterlimit="10"/>
<path d="M1708.29 4534.65L1627.45 4429.24" stroke="#263238" stroke-width="2" stroke-miterlimit="10"/>
<path d="M1652.02 4460.8C1653.36 4446.12 1651.55 4431.33 1646.71 4417.41C1641.87 4403.49 1634.11 4390.77 1623.96 4380.09C1602.87 4356.81 1485.56 4292.39 1469.39 4334.43C1451.8 4380.09 1567.69 4485.37 1652.02 4460.8Z" fill="#92E3A9" stroke="#263238" stroke-miterlimit="10"/>
<path d="M1652.02 4460.8L1542.86 4375.82" stroke="#263238" stroke-width="0.5" stroke-miterlimit="10"/>
<path d="M1708.29 4176.12L1627.45 4070.83" stroke="#263238" stroke-width="2" stroke-miterlimit="10"/>
<path d="M1652.02 4102.39C1653.38 4087.69 1651.58 4072.88 1646.74 4058.93C1641.9 4044.99 1634.13 4032.24 1623.96 4021.55C1602.87 3998.4 1485.56 3933.99 1469.39 3975.89C1451.8 4021.55 1567.69 4126.96 1652.02 4102.39Z" fill="#92E3A9" stroke="#263238" stroke-miterlimit="10"/>
<path d="M1652.02 4102.39L1542.86 4017.41" stroke="#263238" stroke-width="0.5" stroke-miterlimit="10"/>
<path d="M1708.29 3816.15L1627.45 3710.74" stroke="#263238" stroke-width="2" stroke-miterlimit="10"/>
<path d="M1652.02 3742.04C1653.38 3727.34 1651.58 3712.53 1646.74 3698.58C1641.9 3684.64 1634.13 3671.9 1623.96 3661.2C1602.87 3637.92 1485.56 3573.51 1469.39 3615.54C1451.8 3661.59 1567.69 3767 1652.02 3742.04Z" fill="#92E3A9" stroke="#263238" stroke-miterlimit="10"/>
<path d="M1652.02 3742.43L1542.86 3657.45" stroke="#263238" stroke-width="0.5" stroke-miterlimit="10"/>
<path d="M1706.48 5671.71L1787.32 5566.42" stroke="#263238" stroke-width="2" stroke-miterlimit="10"/>
<path d="M1762.74 5597.98C1761.38 5583.29 1763.19 5568.47 1768.03 5554.53C1772.87 5540.58 1780.64 5527.84 1790.81 5517.14C1811.89 5493.99 1929.21 5429.58 1945.37 5471.49C1962.96 5517.14 1846.94 5622.56 1762.74 5597.98Z" fill="#92E3A9" stroke="#263238" stroke-miterlimit="10"/>
<path d="M1762.74 5597.98L1878.37 5508.48" stroke="#263238" stroke-width="0.5" stroke-miterlimit="10"/>
<path d="M1706.48 4942.34L1787.32 4836.93" stroke="#263238" stroke-width="2" stroke-miterlimit="10"/>
<path d="M1762.74 4868.62C1761.38 4853.92 1763.19 4839.11 1768.03 4825.16C1772.87 4811.22 1780.64 4798.47 1790.81 4787.78C1811.89 4764.5 1929.21 4700.09 1945.37 4742.12C1962.96 4787.78 1846.94 4893.19 1762.74 4868.62Z" fill="#92E3A9" stroke="#263238" stroke-miterlimit="10"/>
<path d="M1762.74 4868.62L1878.37 4778.98" stroke="#263238" stroke-width="0.5" stroke-miterlimit="10"/>
<path d="M1706.48 4582.25L1787.32 4476.97" stroke="#263238" stroke-width="2" stroke-miterlimit="10"/>
<path d="M1762.74 4508.53C1761.38 4493.83 1763.19 4479.01 1768.03 4465.07C1772.87 4451.13 1780.64 4438.38 1790.81 4427.69C1811.89 4404.53 1929.21 4340.12 1945.37 4382.03C1962.96 4427.56 1846.94 4533.1 1762.74 4508.53Z" fill="#92E3A9" stroke="#263238" stroke-miterlimit="10"/>
<path d="M1762.74 4508.53L1878.37 4419.02" stroke="#263238" stroke-width="0.5" stroke-miterlimit="10"/>
<path d="M1706.48 4106.4L1787.32 4001.11" stroke="#263238" stroke-width="2" stroke-miterlimit="10"/>
<path d="M1762.74 4032.67C1761.38 4017.98 1763.19 4003.16 1768.03 3989.22C1772.87 3975.27 1780.64 3962.53 1790.81 3951.84C1811.89 3928.68 1929.21 3864.27 1945.37 3906.18C1962.96 3951.84 1846.94 4057.25 1762.74 4032.67Z" fill="#92E3A9" stroke="#263238" stroke-miterlimit="10"/>
<path d="M1762.74 4032.67L1878.37 3943.17" stroke="#263238" stroke-width="0.5" stroke-miterlimit="10"/>
<path d="M1706.48 3732.34L1787.32 3626.93" stroke="#263238" stroke-width="2" stroke-miterlimit="10"/>
<path d="M1762.74 3658.62C1761.38 3643.92 1763.19 3629.1 1768.03 3615.16C1772.87 3601.22 1780.64 3588.47 1790.81 3577.78C1811.89 3554.49 1929.21 3490.08 1945.37 3532.12C1962.96 3577.78 1846.94 3683.19 1762.74 3658.62Z" fill="#92E3A9" stroke="#263238" stroke-miterlimit="10"/>
<path d="M1762.74 3658.61L1878.37 3569.11" stroke="#263238" stroke-width="0.5" stroke-miterlimit="10"/>
<path d="M1701.69 3492.67C1700.33 3477.97 1702.14 3463.15 1706.98 3449.21C1711.82 3435.27 1719.59 3422.52 1729.76 3411.83C1750.84 3388.55 1868.16 3324.26 1884.32 3366.17C1901.92 3411.83 1785.89 3517.24 1701.69 3492.67Z" fill="#92E3A9" stroke="#263238" stroke-miterlimit="10"/>
<path d="M1701.69 3492.67L1817.32 3403.16" stroke="#263238" stroke-width="0.5" stroke-miterlimit="10"/>
<path d="M1707.25 3497.58C1692.47 3497.42 1677.9 3494.09 1664.51 3487.82C1651.12 3481.55 1639.24 3472.49 1629.65 3461.24C1608.69 3437.7 1556.96 3314.3 1600.42 3302.66C1647.89 3289.99 1740.62 3416.35 1707.25 3497.58Z" fill="#92E3A9" stroke="#263238" stroke-miterlimit="10"/>
<path d="M1707.25 3497.58L1630.42 3373.29" stroke="#263238" stroke-width="0.5" stroke-miterlimit="10"/>
<path d="M4992.18 5944.11L4917.42 5082.3H3147.36L3049.58 5944.11H4992.18Z" fill="#263238" stroke="#263238" stroke-miterlimit="10"/>
<path d="M3908.03 2470.21C3908.03 2470.21 3390.65 2612.49 3164.3 2783.74C2937.95 2954.99 2781.45 3130.12 2817.92 3461.89C2854.4 3793.65 3091.35 4701.38 3091.35 4701.38C3091.35 4701.38 3058.5 5069.62 3058.5 5091.48C3058.5 5113.34 3054.88 5175.29 3135.07 5178.92C3215.26 5182.54 4177.71 5222.76 4392.8 5226.39C4607.9 5230.01 4892.33 5208.15 4925.05 5182.67C4941.25 5169.21 4954.47 5152.53 4963.89 5133.7C4973.31 5114.86 4978.71 5094.28 4979.76 5073.24C4983.38 5029.53 5019.86 4493.53 5019.86 4493.53L5023.48 4252.95C5023.48 4252.95 5260.57 3465.51 5275.05 3210.32C5289.54 2955.12 5194.86 2871.31 5089.19 2791.11C4983.51 2710.92 4654.46 2575.11 4476.75 2521.3C4299.03 2467.5 3908.03 2470.21 3908.03 2470.21Z" fill="#92E3A9" stroke="#263238" stroke-miterlimit="10"/>
<path d="M4035.69 3693.8C4009.82 4048.84 3962.48 4702.67 3966.62 4815.33C3972.44 4970.54 3909.19 5016.46 3909.19 5074.02" stroke="#263238" stroke-miterlimit="10"/>
<path d="M4052.89 3464.73C4052.89 3464.73 4048.23 3525.13 4041.12 3620.72" stroke="#263238" stroke-miterlimit="10"/>
<path d="M4283.9 3920.79L4317.01 4311.41L4502.36 4298.22L4283.9 3920.79Z" fill="#263238" stroke="#263238" stroke-miterlimit="10"/>
<path d="M4108.25 4601.92C4108.25 4601.92 4560.95 4530.78 4594.97 4538.28C4628.98 4545.78 4860.77 4658.05 4894.53 4665.55C4916.48 4670.75 4937.82 4678.3 4958.16 4688.06L5008.99 4730.61L4991.66 4601.92C4991.66 4601.92 4924.27 4519.52 4774.5 4459.64C4624.72 4399.75 4549.83 4433.77 4515.81 4444.76C4481.79 4455.76 4108.25 4601.92 4108.25 4601.92Z" fill="#263238" stroke="#263238" stroke-miterlimit="10"/>
<path d="M3412.13 4260.32L4589.15 4256.57C4589.15 4256.57 4968.38 4220.22 4982.87 4216.47C4997.35 4212.72 5147 4252.95 5161.62 4263.94C5176.24 4274.94 5176.11 4307.66 5168.86 4340.51L5161.62 4373.24C5166.95 4400.97 5170.58 4429 5172.48 4457.18C5172.48 4483.05 5143.38 4489.9 5139.63 4500.9C5135.88 4511.89 5161.62 4551.86 5132.39 4577.47L5103.29 4603.34C5103.29 4603.34 5099.53 4672.67 5085.05 4690.9C5070.56 4709.14 5026.71 4741.86 5008.48 4731C4990.24 4720.13 4997.48 4690.9 4997.48 4672.67C4997.48 4654.43 4990.24 4636.19 4968.38 4636.19C4946.52 4636.19 4942.51 4654.43 4829.85 4625.2C4717.2 4595.97 4592.9 4497.66 4581.9 4493.91C4570.91 4490.16 3582.99 4756.48 3291.32 4792.95C2999.65 4829.43 2974.17 4789.33 2963.18 4741.22C2952.18 4693.1 2934.07 4580.83 2934.07 4580.83L2882.34 4358.49L3412.13 4260.32Z" fill="white" stroke="#263238" stroke-miterlimit="10"/>
<path d="M4177.45 2897.56C4177.45 2897.56 4238.37 2832.89 4276.78 2862.25C4315.2 2891.61 4350.38 3044.75 4398.37 3031.95C4446.35 3019.14 4542.45 2721.52 4542.45 2603.05C4542.45 2484.57 4459.16 2414.21 4440.01 2407.74C4420.87 2401.27 3931.05 2394.8 3873.36 2417.44C3815.67 2440.07 3793.43 2641.46 3771.05 2763.04C3748.68 2884.63 3799.77 2913.47 3831.84 2897.56C3863.92 2881.65 3988.61 2830.3 4017.45 2830.3C4046.29 2830.3 4177.45 2897.56 4177.45 2897.56Z" fill="#92E3A9" stroke="#263238" stroke-miterlimit="10"/>
<path d="M4505.33 2222.78C4505.33 2222.78 4459.42 2449.65 4441.57 2505.65C4423.72 2561.66 4293.73 2732.52 4260.49 2768.22C4227.24 2803.92 4130.5 2979.69 4105.27 2984.87C4080.05 2990.04 4008.66 2750.37 4008.66 2750.37C4008.66 2750.37 3916.82 2592.31 3898.97 2551.57C3881.12 2510.82 3853.44 2391.05 3853.44 2391.05C3853.44 2391.05 4003.74 2520.4 4163.87 2492.97C4323.99 2465.55 4405.87 2304.39 4405.87 2304.39L4505.33 2222.78Z" fill="white" stroke="#263238" stroke-miterlimit="10"/>
<path d="M3883.06 1770.86C3883.06 1770.86 3838.18 1722.74 3812.57 1796.72C3786.96 1870.71 3838.44 2001.47 3838.44 2001.47L3883.06 1770.86Z" fill="white" stroke="#263238" stroke-miterlimit="10"/>
<path d="M3891.08 1620.82C3891.08 1620.82 3817.23 2145.82 3817.23 2176.99C3817.23 2208.16 3796.79 2309.44 3827.45 2375.79C3858.1 2442.14 3949.68 2523.5 4023.66 2533.72C4097.64 2543.94 4242.77 2528.67 4324.38 2464.91C4406 2401.14 4500.16 2263.65 4500.16 2263.65C4500.16 2263.65 4602.21 2248.26 4668.3 2220.32C4734.4 2192.38 4785.49 2128.49 4783.03 2062.26C4780.09 2019.86 4765.06 1979.19 4739.7 1945.08L4700.9 1873.68L4802.82 1682.51C4802.82 1682.51 4744.23 1572.96 4555.65 1468.45C4367.07 1363.94 4198.79 1330.83 4119.89 1330.83C4040.99 1330.83 3941.4 1363.94 3912.94 1427.71C3884.49 1491.47 3891.08 1620.82 3891.08 1620.82Z" fill="white" stroke="#263238" stroke-miterlimit="10"/>
<path d="M4133.21 1363.94C4133.21 1363.94 4278.46 1603.48 4388.15 1593.4C4497.83 1583.31 4530.42 1532.22 4530.42 1532.22L4604.28 1631.55C4604.28 1631.55 4525.38 1664.66 4540.64 1705.54C4555.9 1746.41 4624.72 1837.98 4624.72 1837.98L4568.58 2077.53C4568.58 2077.53 4611.91 2085.16 4619.67 2069.9C4627.43 2054.63 4665.46 1960.34 4665.46 1960.34C4675.74 1953.75 4686.88 1948.61 4698.57 1945.08C4712.04 1942.19 4725.97 1942.19 4739.44 1945.08C4739.44 1945.08 4767.38 1850.79 4778.25 1848.2C4789.11 1845.62 4890.39 1817.55 4928.67 1718.21C4966.96 1618.88 4908.23 1460.82 4775.66 1336C4643.08 1211.19 4362.8 1177.95 4347.53 1154.92C4332.27 1131.9 4418.93 1165.01 4401.08 1114.05C4383.23 1063.09 4271.09 996.866 4128.43 1068.26C3985.76 1139.66 4006.07 1218.56 4021.33 1244.04L4036.59 1269.91C4036.59 1269.91 3916.82 1229.17 3832.75 1280.13C3748.67 1331.09 3707.93 1433.01 3746.09 1443.23C3784.24 1453.45 3832.75 1430.29 3832.75 1430.29C3832.75 1430.29 3781.79 1514.37 3797.05 1532.22C3812.31 1550.07 3891.34 1621.33 3891.34 1621.33C3891.34 1621.33 3921.99 1442.97 3985.63 1417.49C4049.27 1392.01 4133.21 1363.94 4133.21 1363.94Z" fill="#263238" stroke="#263238" stroke-miterlimit="10"/>
<path d="M4087.29 1707.99L4110.32 1781.98L3980.33 2026.56L4117.95 2080.11" stroke="#263238" stroke-miterlimit="10"/>
<path d="M4061.81 1679.93C4061.81 1679.93 4000.76 1631.55 3949.67 1644.36C3898.58 1657.16 3929.37 1664.66 3965.07 1677.47C4000.76 1690.27 4072.03 1723.26 4061.81 1679.93Z" fill="#263238" stroke="#263238" stroke-miterlimit="10"/>
<path d="M4250.53 1669.84C4250.53 1669.84 4191.8 1685.1 4219.87 1697.78C4247.94 1710.45 4332.01 1684.84 4365.12 1697.78C4398.24 1710.71 4441.57 1753.91 4439.11 1733.48C4435.34 1715.9 4427.07 1699.61 4415.09 1686.2C4403.12 1672.8 4387.86 1662.75 4370.82 1657.03C4324.38 1641.77 4250.53 1669.84 4250.53 1669.84Z" fill="#263238" stroke="#263238" stroke-miterlimit="10"/>
<path d="M4028.19 1793.1C4023.66 1811.6 4011.24 1824.4 4000.25 1821.69C3989.25 1818.97 3984.08 1802.03 3988.48 1783.53C3992.88 1765.03 4005.55 1752.23 4016.42 1754.82C4027.28 1757.4 4032.58 1774.61 4028.19 1793.1Z" fill="#263238"/>
<path d="M4306.14 1865.79C4301.62 1884.16 4289.07 1896.96 4278.21 1894.38C4267.34 1891.79 4262.04 1874.59 4266.44 1855.57C4270.83 1836.56 4283.38 1824.27 4294.37 1826.99C4305.37 1829.7 4310.41 1847.3 4306.14 1865.79Z" fill="#263238"/>
<path d="M3901.3 2110.64L4005.81 2179.45" stroke="#263238" stroke-miterlimit="10"/>
<path d="M4976.14 2729.03C4976.14 2729.03 5337.01 2867.68 5406.33 3075.41C5475.66 3283.13 5388.1 3545.7 5351.62 3655.12C5315.15 3764.55 5089.19 4190.99 5052.71 4293.04C5016.24 4395.1 4961.52 4519.13 4961.52 4519.13C4961.52 4519.13 4910.56 4212.85 4771.78 4023.36C4632.99 3833.88 4600.4 3662.37 4600.4 3662.37C4600.4 3662.37 4851.97 3217.56 4917.55 3079.03" fill="#92E3A9"/>
<path d="M4976.14 2729.03C4976.14 2729.03 5337.01 2867.68 5406.33 3075.41C5475.66 3283.13 5388.1 3545.7 5351.62 3655.12C5315.15 3764.55 5089.19 4190.99 5052.71 4293.04C5016.24 4395.1 4961.52 4519.13 4961.52 4519.13C4961.52 4519.13 4910.56 4212.85 4771.78 4023.36C4632.99 3833.88 4600.4 3662.37 4600.4 3662.37C4600.4 3662.37 4851.97 3217.56 4917.55 3079.03" stroke="#263238" stroke-miterlimit="10"/>
<path d="M4638.94 3585.28C4638.94 3585.28 4712.8 3548.42 4737.37 3560.7C4761.95 3572.99 5077.93 3741.78 5118.94 3934.12C5148.55 4078.8 5128.3 4229.24 5061.51 4360.95C5024.51 4430.79 4954.8 4566.09 4901.51 4582.51C4848.22 4598.94 4802.95 4159.95 4692.23 3930.24C4581.52 3700.52 4638.94 3585.28 4638.94 3585.28Z" fill="#92E3A9" stroke="#263238" stroke-miterlimit="10"/>
<path d="M4761.04 3374.32C4761.04 3374.32 4826.62 3151.98 4852.23 3064.54" stroke="#263238" stroke-miterlimit="10"/>
<path d="M4102.69 2584.68C4102.69 2584.68 4000.77 2442.4 3921.61 2347.72C3842.45 2253.04 3760.96 2197.3 3733.03 2205.45C3705.09 2213.59 3694.22 2241.14 3712.59 2274.26C3730.96 2307.37 3814.51 2381.35 3829.77 2401.79C3845.04 2422.23 3868.58 2496.08 3868.58 2496.08C3868.58 2496.08 3794.72 2501.12 3781.92 2516.39C3770.01 2534.1 3759.79 2552.9 3751.39 2572.52C3736 2580.31 3722.7 2591.66 3712.59 2605.63C3704.98 2616.29 3699.77 2628.47 3697.33 2641.33C3694.74 2651.55 3658.52 2669.4 3661.63 2715.19C3664.73 2760.97 3707.54 2827.33 3722.81 2857.46C3738.07 2887.6 3850.21 3023.02 3870.65 3046.05C3891.08 3069.07 4008.27 3272.79 4038.79 3341.6C4069.32 3410.41 4365 4208.19 4451.66 4327.97C4538.31 4447.74 4698.83 4562.33 4785.49 4603.21C4872.15 4644.08 4933.33 4575.14 4974.07 4488.48C5014.81 4401.82 5050.51 4228.5 4971.61 4029.7C4892.72 3830.9 4737.12 3660.17 4617.34 3558.25C4497.57 3456.32 4273.29 3201.52 4247.81 3155.6C4222.33 3109.68 4189.74 3007.76 4189.74 3007.76C4189.74 3007.76 4255.96 2813.75 4261 2768.22C4266.05 2722.69 4240.7 2640.81 4248.07 2605.12C4255.44 2569.42 4286.23 2498.02 4299.03 2467.5C4311.84 2436.97 4355.04 2385.88 4332.14 2362.99C4309.25 2340.09 4214.96 2368.03 4181.85 2421.58C4152.31 2474.36 4125.88 2528.82 4102.69 2584.68Z" fill="white" stroke="#263238" stroke-miterlimit="10"/>
<path d="M3314.99 3136.59C3322.62 3096.1 3327.92 3068.16 3327.92 3068.16Z" fill="#92E3A9"/>
<path d="M3314.99 3136.59C3322.62 3096.1 3327.92 3068.16 3327.92 3068.16" stroke="#263238" stroke-miterlimit="10"/>
<path d="M3291.84 2718.16C3291.84 2718.16 3098.6 2744.03 2898.12 2958.74C2697.63 3173.45 2785.07 3684.23 2803.31 3790.03C2821.54 3895.83 2850.78 4220.61 2850.78 4220.61L3364.79 4049.23C3364.79 4049.23 3280.97 3476.89 3273.6 3425.8C3269.98 3399.93 3283.95 3309.39 3298.69 3225.32" fill="#92E3A9"/>
<path d="M3291.84 2718.16C3291.84 2718.16 3098.6 2744.03 2898.12 2958.74C2697.63 3173.45 2785.07 3684.23 2803.31 3790.03C2821.54 3895.83 2850.78 4220.61 2850.78 4220.61L3364.79 4049.23C3364.79 4049.23 3280.97 3476.89 3273.6 3425.8C3269.98 3399.93 3283.95 3309.39 3298.69 3225.32" stroke="#263238" stroke-miterlimit="10"/>
<path d="M2799.69 4107.18C2799.69 4107.18 2850.78 4380.61 2876.26 4395.09C2901.74 4409.58 3299.08 4300.42 3342.93 4293.04C3386.77 4285.67 3412.12 4296.66 3412.12 4260.32C3412.12 4223.97 3375.65 4052.46 3353.79 4023.36C3331.93 3994.26 2858.02 4056.09 2817.92 4067.08C2777.83 4078.07 2799.69 4107.18 2799.69 4107.18Z" fill="#92E3A9" stroke="#263238" stroke-miterlimit="10"/>
<path d="M3090.32 3895.83C3180.87 3932.09 3268.74 3974.7 3353.27 4023.36C3353.27 4023.36 3229.36 3790.54 3178.27 3742.56" stroke="#263238" stroke-miterlimit="10"/>
<path d="M3022.03 3870.22C3036.64 3875.27 3051.13 3880.57 3065.36 3885.87" stroke="#263238" stroke-miterlimit="10"/>
<path d="M4217.67 5063.67C4311.96 5030.04 4398.75 4993.05 4450.49 4956.57" stroke="#263238" stroke-miterlimit="10"/>
<path d="M3773.12 5193.53C3773.12 5193.53 3974.51 5145.8 4165.68 5081.65" stroke="#263238" stroke-miterlimit="10"/>
<path d="M4620.19 4941.44C4521.11 4990.85 4364.22 5063.02 4236.04 5095.1" stroke="#263238" stroke-miterlimit="10"/>
<path d="M4717.33 4891C4717.33 4891 4697.02 4902.25 4663.26 4919.58" stroke="#263238" stroke-miterlimit="10"/>
<path d="M1306.94 264.526C439.434 682.433 274.909 1909.38 825.135 2646.9C940.121 2801.07 1090.42 2931.45 1268.52 3006.6C1876.43 3264.38 2363.67 2751.79 2659.99 2280.73C3133.13 1528.85 3192.24 1342.99 3183.83 1469.62C3175.43 1596.24 3395.05 1731.53 3521.81 1064.64C3683.87 210.978 2489.26 16.9635 1884.58 97.6736C1684.45 122.529 1489.5 178.84 1306.94 264.526Z" fill="#263238" stroke="#263238" stroke-miterlimit="10"/>
<path d="M3448.43 1816.43C3499.31 1724.57 3495.87 1625.36 3440.75 1594.83C3385.64 1564.31 3299.71 1614.03 3248.84 1705.89C3197.96 1797.75 3201.4 1896.96 3256.51 1927.49C3311.63 1958.01 3397.55 1908.29 3448.43 1816.43Z" fill="#263238" stroke="#263238" stroke-miterlimit="10"/>
<path d="M3539.01 1835.27C3509 1889.46 3511.07 1948.18 3543.54 1966.16C3576 1984.14 3626.96 1954.78 3656.97 1900.58C3686.98 1846.39 3685.04 1787.67 3652.44 1769.69C3619.85 1751.71 3568.89 1780.94 3539.01 1835.27Z" fill="#263238" stroke="#263238" stroke-miterlimit="10"/>
<path d="M1357.12 185.108C489.36 602.498 324.836 1829.45 875.061 2566.96C990.047 2721.14 1140.47 2851.51 1318.45 2926.66C1926.36 3184.44 2413.6 2671.86 2709.92 2200.79C3183.06 1448.92 3242.3 1263.05 3233.76 1389.68C3225.22 1516.31 3444.98 1651.6 3571.73 984.189C3733.8 130.525 2539.19 -63.4896 1934.51 17.2205C1734.41 42.43 1539.54 99.0907 1357.12 185.108Z" fill="white" stroke="#263238" stroke-miterlimit="10"/>
<path d="M3298.82 1625.99C3247.86 1717.82 3251.35 1817.03 3306.45 1847.56C3361.55 1878.08 3447.44 1828.28 3498.4 1736.45C3549.36 1644.62 3545.74 1545.41 3490.64 1514.89C3435.54 1484.36 3349.65 1534.16 3298.82 1625.99Z" fill="white" stroke="#263238" stroke-miterlimit="10"/>
<path d="M3589.07 1755.33C3558.93 1809.66 3561 1868.25 3593.59 1886.23C3626.19 1904.21 3676.89 1874.98 3706.9 1820.65C3736.91 1766.33 3734.97 1707.73 3702.37 1689.76C3669.78 1671.78 3619.07 1701.01 3589.07 1755.33Z" fill="white" stroke="#263238" stroke-miterlimit="10"/>
<path d="M898.859 1109.26V938.402H1002.33C1007.28 910.132 1014.68 882.347 1024.45 855.364L934.558 803.626L1020.83 655.529L1111.37 707.266C1129.85 685.294 1150.19 664.955 1172.16 646.475L1120.42 555.934L1268.39 470.439L1320.13 560.979C1347.11 551.205 1374.9 543.804 1403.17 538.861V435.387H1574.03V539.508C1602.31 544.346 1630.1 551.705 1657.07 561.496L1708.81 471.603L1856.77 557.099L1805.04 647.639C1826.97 666.121 1847.26 686.46 1865.7 708.43L1956.24 656.693L2041.61 804.661L1951.07 856.398C1960.86 883.367 1968.21 911.157 1973.05 939.437H2076.53V1110.3H1973.05C1968.09 1138.61 1960.69 1166.43 1950.94 1193.47L2040.83 1245.2L1955.46 1393.17L1864.92 1341.43C1846.47 1363.4 1826.13 1383.7 1804.13 1402.1L1855.87 1492.64L1707.9 1578L1656.16 1487.46C1629.15 1497.24 1601.31 1504.6 1573 1509.45V1612.93H1402.13V1509.45C1373.86 1504.51 1346.08 1497.11 1319.09 1487.33L1267.36 1577.87L1119.13 1491.47L1170.87 1400.93C1148.9 1382.45 1128.56 1362.11 1110.08 1340.14L1019.54 1391.88L934.041 1243.91L1024.58 1192.17C1014.82 1165.14 1007.42 1137.31 1002.46 1109.01L898.859 1109.26ZM1487.76 1342.08C1550.75 1342.08 1612.32 1323.4 1664.69 1288.41C1717.06 1253.41 1757.87 1203.67 1781.97 1145.47C1806.07 1087.28 1812.37 1023.24 1800.07 961.466C1787.77 899.691 1757.43 842.95 1712.89 798.42C1668.34 753.89 1611.58 723.572 1549.8 711.299C1488.02 699.027 1423.99 705.351 1365.81 729.473C1307.62 753.595 1257.9 794.431 1222.92 846.816C1187.94 899.2 1169.29 960.781 1169.32 1023.77C1169.28 1065.6 1177.49 1107.03 1193.48 1145.69C1209.47 1184.35 1232.93 1219.48 1262.5 1249.06C1292.08 1278.65 1327.19 1302.12 1365.85 1318.12C1404.5 1334.13 1445.92 1342.36 1487.76 1342.34V1342.08Z" fill="#CCCCCC"/>
<path d="M1141.25 2113.35V1974.57H1225.84C1229.88 1951.55 1235.89 1928.91 1243.82 1906.92L1170.74 1864.76L1240.2 1744.47L1313.53 1786.76C1328.52 1768.87 1345.05 1752.34 1362.94 1737.35L1320.65 1664.15L1440.94 1594.69L1483.1 1667.9C1505.03 1659.93 1527.63 1653.91 1550.62 1649.92V1565.33H1689.53V1649.92C1712.52 1653.94 1735.11 1659.96 1757.05 1667.9L1799.35 1594.82L1919.63 1664.28L1877.34 1737.22C1895.2 1752.24 1911.73 1768.77 1926.75 1786.63L1999.96 1744.34L2069.41 1864.63L1996.21 1906.92C2004.13 1928.87 2010.15 1951.46 2014.18 1974.44H2098.77V2113.61H2014.18C2010.16 2136.6 2004.15 2159.19 1996.21 2181.13L2069.28 2223.3L1999.83 2343.71L1926.23 2301.29C1911.21 2319.15 1894.68 2335.68 1876.82 2350.7L1918.99 2423.91L1798.7 2493.36L1756.53 2420.29C1734.59 2428.21 1712 2434.23 1689.02 2438.26V2522.73H1551.14V2438.13C1528.12 2434.24 1505.52 2428.22 1483.62 2420.16L1441.32 2493.36L1321.03 2423.91L1363.33 2350.57C1345.51 2335.55 1329.02 2319.02 1314.05 2301.16L1240.71 2343.46L1171.26 2223.17L1244.46 2181C1236.54 2159.01 1230.52 2136.38 1226.49 2113.35H1141.25ZM1619.82 2302.84C1670.98 2302.84 1720.99 2287.67 1763.54 2259.25C1806.08 2230.82 1839.23 2190.42 1858.81 2143.15C1878.39 2095.88 1883.51 2043.87 1873.53 1993.69C1863.55 1943.51 1838.91 1897.42 1802.74 1861.24C1766.56 1825.06 1720.46 1800.42 1670.28 1790.44C1620.1 1780.46 1568.09 1785.58 1520.82 1805.16C1473.55 1824.74 1433.15 1857.9 1404.73 1900.44C1376.3 1942.98 1361.13 1992.99 1361.13 2044.16C1361.13 2078.15 1367.83 2111.81 1380.85 2143.21C1393.86 2174.61 1412.94 2203.14 1436.99 2227.17C1461.04 2251.19 1489.59 2270.24 1521 2283.23C1552.42 2296.21 1586.08 2302.88 1620.08 2302.84H1619.82Z" fill="#CCCCCC"/>
<path d="M2023.88 1795.95V1690.14H2088.56C2091.57 1672.52 2096.16 1655.21 2102.27 1638.41L2046.52 1606.2L2099.42 1514.63L2155.3 1546.83C2166.72 1533.21 2179.31 1520.62 2192.94 1509.19L2160.73 1453.45L2252.3 1400.55L2284.51 1456.29C2301.31 1450.18 2318.63 1445.59 2336.25 1442.58V1377.91H2442.05V1442.58C2459.66 1445.63 2476.98 1450.22 2493.79 1456.29L2525.99 1400.67L2617.57 1453.58L2585.36 1509.32C2598.98 1520.75 2611.58 1533.34 2623 1546.96L2678.75 1514.76L2731.65 1606.33L2676.03 1638.54C2681.82 1655.38 2686.15 1672.69 2688.97 1690.27H2753.64V1796.08H2688.97C2685.95 1813.7 2681.37 1831.01 2675.26 1847.81L2730.74 1879.5L2677.84 1971.21L2621.97 1939C2610.54 1952.58 2597.95 1965.13 2584.33 1976.51L2616.53 2032.39L2524.96 2085.29L2492.75 2029.54C2475.93 2035.59 2458.62 2040.18 2441.02 2043.25V2107.92H2335.21V2043.25C2317.62 2040.45 2300.31 2036.13 2283.48 2030.32L2251.27 2085.93L2159.69 2033.03L2191.9 1977.29C2178.31 1965.83 2165.72 1953.24 2154.26 1939.65L2098.52 1971.85L2046.26 1879.5L2101.88 1847.43C2095.87 1830.6 2091.33 1813.29 2088.3 1795.69L2023.88 1795.95ZM2388.5 1940.16C2427.49 1940.16 2465.6 1928.6 2498.02 1906.94C2530.43 1885.28 2555.7 1854.5 2570.62 1818.48C2585.54 1782.46 2589.44 1742.83 2581.83 1704.59C2574.23 1666.35 2555.45 1631.23 2527.89 1603.66C2500.32 1576.09 2465.2 1557.32 2426.96 1549.71C2388.72 1542.11 2349.09 1546.01 2313.07 1560.93C2277.05 1575.85 2246.26 1601.12 2224.6 1633.53C2202.94 1665.95 2191.38 1704.06 2191.38 1743.05C2191.38 1795.32 2212.15 1845.46 2249.12 1882.43C2286.09 1919.4 2336.22 1940.16 2388.5 1940.16Z" fill="#CCCCCC"/>
<path d="M2400.66 817.209V711.406H2465.33C2468.41 693.798 2472.99 676.488 2479.04 659.669L2423.43 627.592L2476.33 535.887L2532.07 568.094C2543.57 554.535 2556.15 541.946 2569.71 530.455L2537.51 474.708L2629.21 421.807L2661.29 477.554C2678.09 471.444 2695.4 466.856 2713.03 463.843V399.172H2818.7V463.843C2836.31 466.915 2853.62 471.503 2870.44 477.554L2902.51 421.936L2994.22 474.838L2960.98 530.843C2974.53 542.301 2987.07 554.893 2998.49 568.482L3054.36 536.276L3107.26 627.98L3051.52 660.057C3057.57 676.876 3062.15 694.186 3065.23 711.794H3129.9V817.597H3065.23C3062.2 835.201 3057.65 852.511 3051.65 869.334L3107.26 901.411L3054.36 993.115L2998.62 960.909C2987.16 974.458 2974.57 987.007 2960.98 998.418L2993.18 1054.29L2901.48 1107.2L2869.4 1051.45C2852.9 1057.27 2835.94 1061.68 2818.7 1064.64V1129.31H2712.9V1064.64C2695.31 1061.82 2678 1057.5 2661.16 1051.71L2629.08 1107.33L2537.38 1054.42L2569.58 998.677C2556.02 987.186 2543.44 974.597 2531.95 961.038L2476.2 993.245L2423.3 901.54L2479.04 869.463C2472.93 852.663 2468.35 835.347 2465.33 817.726L2400.66 817.209ZM2765.28 961.167C2804.3 961.193 2842.45 949.646 2874.9 927.988C2907.35 906.33 2932.66 875.533 2947.61 839.493C2962.56 803.452 2966.48 763.788 2958.88 725.517C2951.29 687.246 2932.51 652.088 2904.93 624.49C2877.35 596.891 2842.2 578.092 2803.94 570.471C2765.67 562.849 2726.01 566.748 2689.96 581.673C2653.91 596.599 2623.09 621.881 2601.41 654.321C2579.73 686.761 2568.16 724.902 2568.16 763.919C2568.16 816.21 2588.93 866.362 2625.89 903.349C2662.85 940.337 2712.99 961.133 2765.28 961.167Z" fill="#CCCCCC"/>
</svg>
